<svg width="623" height="660" viewBox="0 0 623 660" fill="none" xmlns="http://www.w3.org/2000/svg">
<mask id="mask0_2002_3" style="mask-type:luminance" maskUnits="userSpaceOnUse" x="0" y="0" width="623" height="660">
<path d="M0 0H623V660H0V0Z" fill="white"/>
</mask>
<g mask="url(#mask0_2002_3)">
<path d="M470.622 404.138C450.953 385.966 449.1 356.193 452.614 330.02C453.201 325.651 453.216 320.977 455.576 317.353C457.937 313.733 462.799 311.627 466.316 313.898C469.234 315.781 470.187 319.723 471.588 323.052C473.452 327.48 476.511 331.319 480.297 333.983C482.786 335.732 485.956 336.99 488.713 335.767C492.495 334.088 493.447 328.91 493.865 324.546C494.644 316.412 495.423 308.278 496.201 300.146C496.62 295.782 497.061 291.328 498.762 287.335C500.463 283.342 503.684 279.821 507.717 279.105C511.753 278.391 516.352 281.336 516.744 285.699C516.907 287.513 516.379 289.319 516.309 291.142C516.238 292.965 516.831 295.06 518.404 295.749C519.994 296.449 521.767 295.4 523.127 294.264C527.824 290.345 531.285 285.003 534.553 279.669C537.822 274.336 541.025 268.859 545.367 264.497C549.712 260.134 555.431 256.937 561.363 257.256C567.296 257.576 573.184 262.148 574.05 268.45C574.919 274.769 570.899 280.619 566.708 285.176C560.49 291.935 553.359 297.726 545.61 302.311C544.214 303.138 542.7 304.032 542.039 305.591C540.848 308.396 543.156 311.581 545.769 312.846C548.727 314.279 552.091 314.321 555.259 315.088C558.429 315.855 561.753 317.752 562.641 321.105C563.873 325.755 559.879 330.025 556.104 332.689C548.548 338.026 540.139 341.962 531.36 344.276C528.212 345.104 524.919 345.77 522.249 347.745C519.578 349.721 517.705 353.473 518.867 356.712C520.031 359.955 523.718 361.371 526.954 361.109C530.187 360.849 533.213 359.348 536.359 358.486C542.245 356.869 549.51 358.116 552.607 363.709C554.641 367.387 554.368 372.152 552.751 376.072C551.135 379.993 548.335 383.211 545.413 386.137C535.2 396.371 522.67 404.118 509.056 407.442C495.443 410.765 483.151 410.68 470.622 404.138Z" fill="#F5F5F5"/>
<path d="M478.698 388.401C483.697 375.562 490.277 361.97 497.621 348.003C499.469 344.518 501.296 341.074 503.094 337.682C504.898 334.3 506.687 330.944 508.629 327.778C512.484 321.425 516.649 315.629 520.765 310.257C524.879 304.884 528.97 299.942 532.823 295.351C536.692 290.766 540.372 286.566 543.88 282.889C550.878 275.504 557.174 270.268 561.636 266.86C563.865 265.146 565.633 263.879 566.844 263.037C567.427 262.638 567.883 262.324 568.227 262.088C568.54 261.878 568.704 261.778 568.712 261.788C568.719 261.8 568.57 261.926 568.271 262.158C567.937 262.41 567.493 262.745 566.931 263.173C565.749 264.059 564.008 265.367 561.809 267.116C557.408 270.598 551.186 275.886 544.257 283.299C540.782 286.992 537.133 291.205 533.293 295.802C529.462 300.41 525.396 305.36 521.304 310.734C517.215 316.104 513.079 321.889 509.252 328.212C507.328 331.364 505.557 334.692 503.75 338.084C501.954 341.475 500.13 344.918 498.284 348.4C490.947 362.357 484.364 375.906 479.344 388.692" fill="#E0E0E0"/>
<path d="M508.847 327.771C508.796 327.774 508.722 327.095 508.634 325.865C508.541 324.635 508.461 322.851 508.394 320.647C508.251 316.238 508.254 310.142 508.281 303.423C508.308 296.698 508.229 290.621 508.026 286.228C507.93 284.03 507.835 282.252 507.756 281.024C507.681 279.795 507.666 279.112 507.718 279.105C507.771 279.098 507.886 279.77 508.05 280.993C508.22 282.212 508.399 283.99 508.562 286.19C508.904 290.59 509.07 296.693 509.041 303.422C509 310.054 508.962 316.052 508.931 320.635C508.929 322.707 508.931 324.451 508.931 325.852C508.927 327.083 508.901 327.768 508.847 327.771Z" fill="#E0E0E0"/>
<path d="M562.84 323.335C562.835 323.391 562.072 323.397 560.701 323.362C559.33 323.335 557.346 323.284 554.894 323.306C549.99 323.306 543.217 323.558 535.754 324.184C528.29 324.823 521.56 325.706 516.709 326.494C514.28 326.869 512.322 327.229 510.968 327.47C509.613 327.716 508.859 327.826 508.847 327.771C508.836 327.715 509.571 327.501 510.91 327.158C512.25 326.823 514.2 326.375 516.625 325.924C521.466 324.988 528.211 324.011 535.697 323.368C543.181 322.744 549.985 322.58 554.902 322.729C557.361 322.782 559.347 322.92 560.718 323.045C562.087 323.178 562.842 323.279 562.84 323.335Z" fill="#E0E0E0"/>
<path d="M479.454 387.445C479.429 387.454 479.328 387.203 479.161 386.719C478.972 386.143 478.741 385.439 478.462 384.587C477.864 382.734 477.063 380.027 476.115 376.67C474.215 369.955 471.866 360.591 469.406 350.224C466.943 339.85 464.68 330.476 462.916 323.73C462.047 320.45 461.334 317.75 460.803 315.745C460.577 314.874 460.392 314.157 460.24 313.567C460.119 313.068 460.066 312.802 460.092 312.791C460.117 312.784 460.218 313.033 460.385 313.518C460.575 314.095 460.805 314.796 461.084 315.649C461.684 317.502 462.485 320.209 463.433 323.568C465.332 330.282 467.682 339.645 470.141 350.018C472.604 360.388 474.866 369.76 476.632 376.507C477.502 379.788 478.214 382.487 478.745 384.492C478.969 385.362 479.155 386.081 479.308 386.669C479.428 387.169 479.48 387.436 479.454 387.445Z" fill="#E0E0E0"/>
<path d="M552.227 371.462C552.232 371.49 551.98 371.566 551.498 371.686C550.929 371.82 550.228 371.982 549.382 372.179C547.429 372.612 544.793 373.195 541.587 373.905C535.007 375.364 525.939 377.488 515.922 379.85C505.902 382.215 496.806 384.254 490.196 385.569C486.889 386.227 484.21 386.73 482.353 387.039C481.493 387.175 480.786 387.287 480.211 387.382C479.72 387.45 479.459 387.472 479.454 387.444C479.451 387.417 479.702 387.34 480.183 387.219C480.753 387.087 481.45 386.926 482.3 386.728C484.251 386.295 486.887 385.713 490.093 385.002C496.674 383.544 505.742 381.419 515.762 379.054C525.779 376.69 534.873 374.652 541.485 373.338C544.791 372.679 547.471 372.175 549.33 371.867C550.187 371.73 550.895 371.616 551.472 371.525C551.963 371.455 552.222 371.434 552.227 371.462Z" fill="#E0E0E0"/>
<path d="M60.5041 178.446C60.5041 178.446 52.7378 181.778 61.6953 199.246C70.6541 216.714 76.7744 225.316 76.7744 225.316C76.7744 225.316 78.3867 229.383 75.1372 230.112C71.8876 230.841 64.667 229.823 63.3164 234.096C61.9146 238.528 65.0259 242.586 71.2185 246.052C77.4099 249.517 90.7147 257.638 91.9146 258.377C93.0933 259.103 94.3019 260.983 92.1637 261.855C90.0256 262.727 73.8961 264.959 75.354 273.004C76.8118 281.048 95.5603 287.701 97.5963 288.469C99.6323 289.237 100.137 290.13 100.001 291.306C99.8653 292.483 94.3779 292.693 89.8138 293.526C85.2509 294.36 80.0987 296.174 81.3074 300.741C82.516 305.308 93.7536 314.663 120.535 316.704L133.004 316.789L139.511 305.452C152.039 280.293 150.488 265.243 147.469 261.741C144.45 258.239 140.271 261.912 137.189 265.574C134.108 269.236 131.038 274.06 130.023 273.559C129.008 273.058 128.561 272.133 129.022 269.896C129.483 267.658 134.069 247.284 128.395 241.719C122.722 236.152 112.403 249.475 110.573 250.936C108.744 252.398 107.878 250.316 107.919 248.873C107.962 247.403 108.493 231.147 108.991 223.746C109.489 216.346 107.883 211.401 103.592 210.319C99.4541 209.273 96.4512 216.302 94.1486 218.839C91.846 221.376 89.4412 217.774 89.4412 217.774C89.4412 217.774 85.7867 207.722 76.5302 190.43C67.2737 173.137 60.3509 178.525 60.3509 178.525" fill="#EBEBEB"/>
<path d="M133.724 319.876C126.973 307.147 115.333 284.311 105.244 264.761C95.1581 245.216 86.0112 227.53 79.3215 214.767C75.9772 208.399 73.2672 203.242 71.3857 199.661C70.4549 197.887 69.731 196.506 69.2301 195.551C68.9934 195.09 68.809 194.733 68.6781 194.477C68.5548 194.235 68.5012 194.104 68.5012 194.104C68.5012 194.104 68.5785 194.22 68.7118 194.456C68.8526 194.708 69.047 195.058 69.2974 195.51C69.8132 196.456 70.5596 197.826 71.5165 199.582C73.4391 203.119 76.1878 208.26 79.5607 214.626C86.3115 227.355 95.4983 245.02 105.585 264.564C115.674 284.115 127.275 306.972 133.964 319.735" fill="#E0E0E0"/>
<path d="M73.3621 235.95C73.3708 235.923 73.6823 236.007 74.238 236.183C74.7937 236.356 75.5912 236.63 76.573 236.979C78.5367 237.682 81.2243 238.725 84.1699 239.933C87.0718 241.135 89.6946 242.222 91.702 243.055C92.609 243.423 93.3741 243.734 93.9884 243.984C94.5304 244.202 94.8257 244.335 94.817 244.361C94.8082 244.389 94.4967 244.307 93.941 244.136C93.3841 243.961 92.5866 243.687 91.6073 243.327C89.651 242.603 86.9771 241.523 84.0316 240.316C81.1234 239.136 78.4931 238.069 76.4808 237.252C75.5725 236.888 74.8049 236.581 74.1894 236.334C73.6487 236.113 73.3546 235.978 73.3621 235.95Z" fill="#E0E0E0"/>
<path d="M95.6483 243.495C95.5461 243.459 97.3329 237.494 99.6367 230.173C101.942 222.85 103.893 216.944 103.994 216.98C104.095 217.015 102.309 222.979 100.004 230.302C97.7004 237.623 95.7492 243.53 95.6483 243.495Z" fill="#E0E0E0"/>
<path d="M109.861 274.253C109.84 274.236 110.015 273.941 110.347 273.424C110.729 272.841 111.206 272.111 111.772 271.245C112.97 269.403 114.616 266.852 116.334 263.966C118.061 261.083 119.537 258.418 120.59 256.479C121.087 255.567 121.505 254.799 121.841 254.182C122.14 253.642 122.315 253.349 122.339 253.363C122.363 253.376 122.232 253.694 121.974 254.259C121.716 254.823 121.328 255.632 120.83 256.62C119.836 258.598 118.393 261.296 116.662 264.185C114.939 267.079 113.252 269.612 111.993 271.414C111.362 272.311 110.841 273.032 110.468 273.519C110.097 274.007 109.883 274.27 109.861 274.253Z" fill="#E0E0E0"/>
<path d="M88.2862 272.13C88.2886 272.102 88.5914 272.101 89.1384 272.122C89.7664 272.158 90.5377 272.201 91.4485 272.253C93.3972 272.379 96.0886 272.585 99.0591 272.837C102.03 273.089 104.718 273.34 106.662 273.541C107.568 273.644 108.336 273.731 108.962 273.802C109.504 273.872 109.803 273.925 109.801 273.953C109.8 273.982 109.496 273.983 108.95 273.962C108.322 273.926 107.549 273.883 106.64 273.831C104.691 273.703 101.998 273.497 99.0279 273.247C96.0575 272.994 93.3698 272.744 91.4261 272.542C90.519 272.439 89.7514 272.352 89.126 272.28C88.5827 272.21 88.2849 272.158 88.2862 272.13Z" fill="#E0E0E0"/>
<path d="M97.5776 300.973C97.5788 300.945 97.9676 300.946 98.6678 300.974C99.4391 301.015 100.433 301.066 101.628 301.13C104.128 301.279 107.579 301.513 111.388 301.798C115.2 302.081 118.647 302.361 121.142 302.584C122.333 302.701 123.325 302.796 124.094 302.871C124.79 302.947 125.175 303.003 125.173 303.032C125.171 303.06 124.783 303.058 124.084 303.031C123.312 302.99 122.317 302.937 121.122 302.873C118.624 302.726 115.172 302.491 111.362 302.207C107.552 301.922 104.104 301.642 101.61 301.419C100.418 301.303 99.4254 301.208 98.6566 301.134C97.9601 301.056 97.5763 301 97.5776 300.973Z" fill="#E0E0E0"/>
<path d="M124.527 302.785C124.504 302.769 124.716 302.39 125.117 301.718C125.558 300.988 126.134 300.035 126.828 298.886C128.27 296.493 130.25 293.179 132.338 289.456C134.431 285.735 136.242 282.314 137.536 279.829C138.159 278.636 138.676 277.644 139.072 276.885C139.438 276.192 139.652 275.813 139.675 275.827C139.699 275.84 139.531 276.242 139.206 276.959C138.882 277.676 138.397 278.704 137.778 279.966C136.544 282.49 134.767 285.938 132.669 289.666C130.578 293.396 128.559 296.691 127.056 299.045C126.302 300.22 125.683 301.165 125.242 301.808C124.802 302.452 124.549 302.801 124.527 302.785Z" fill="#E0E0E0"/>
<path d="M572.627 552.312L468.202 530.826L481.873 456.26L586.298 477.748L572.627 552.312Z" fill="#EBEBEB"/>
<path d="M586.468 478.712C586.484 478.742 586.085 479.014 585.313 479.505C584.455 480.034 583.325 480.733 581.911 481.604C578.843 483.445 574.558 486.015 569.3 489.172C558.52 495.526 543.765 504.226 527.42 513.861L527.076 514.064L526.819 513.745C526.624 513.5 526.412 513.236 526.199 512.972C513.973 497.666 502.91 483.816 494.822 473.688C490.893 468.694 487.691 464.623 485.398 461.709C484.349 460.341 483.509 459.247 482.873 458.418C482.303 457.658 482.018 457.247 482.043 457.226C482.069 457.202 482.404 457.567 483.022 458.284C483.693 459.082 484.578 460.134 485.684 461.45C488.034 464.315 491.316 468.313 495.341 473.221C503.485 483.298 514.626 497.08 526.935 512.308C527.147 512.574 527.359 512.838 527.554 513.081L526.952 512.965C543.351 503.434 558.156 494.829 568.973 488.542C574.293 485.505 578.627 483.031 581.73 481.259C583.179 480.456 584.339 479.813 585.219 479.326C586.023 478.894 586.45 478.681 586.468 478.712Z" fill="#E0E0E0"/>
<path d="M468.371 531.792C468.204 531.571 477.932 522.965 490.094 512.572C502.261 502.176 512.258 493.929 512.424 494.149C512.592 494.368 502.868 502.972 490.701 513.37C478.537 523.762 468.539 532.011 468.371 531.792Z" fill="#E0E0E0"/>
<path d="M547.306 500.359C547.544 500.23 553.444 511.974 560.48 526.585C567.521 541.2 573.034 553.15 572.797 553.278C572.559 553.407 566.66 541.666 559.62 527.051C552.583 512.438 547.069 500.487 547.306 500.359Z" fill="#E0E0E0"/>
<path d="M540.866 131.527C540.866 131.569 540.253 131.611 539.083 131.652C537.804 131.681 536.102 131.719 533.969 131.768C529.406 131.816 523.013 131.883 515.162 131.965C499.176 132.012 477.292 132.077 453.115 132.147C451.6 132.147 450.094 132.146 448.692 132.146H448.105L448.107 131.527C448.177 106.973 448.242 84.9544 448.288 68.923C448.364 61.061 448.426 54.6736 448.471 50.113C448.515 47.9891 448.551 46.2942 448.578 45.0151C448.614 43.8522 448.652 43.241 448.692 43.241C448.732 43.241 448.769 43.8522 448.806 45.0151C448.834 46.2942 448.869 47.9891 448.912 50.113C448.957 54.6736 449.019 61.0597 449.097 68.923C449.143 84.9544 449.206 106.973 449.276 131.527L448.692 130.908C450.094 130.906 451.6 130.906 453.115 130.906C477.292 130.977 499.176 131.041 515.162 131.087C523.013 131.17 529.406 131.238 533.969 131.285C536.104 131.334 537.804 131.372 539.083 131.401C540.253 131.442 540.866 131.483 540.866 131.527Z" fill="#E0E0E0"/>
<path d="M530.625 64.6604C530.678 64.7264 529.696 65.7138 527.874 67.4443C525.887 69.2923 523.265 71.7317 520.093 74.6819C513.489 80.7512 504.313 89.0712 494.134 98.2016L492.592 99.5837L492.195 99.9388L491.816 99.5652C487.747 95.559 483.862 91.7336 480.271 88.2L480.991 88.2172C474.193 94.1572 468.354 99.2576 464.035 103.033C462.039 104.724 460.399 106.114 459.114 107.203C457.959 108.156 457.316 108.645 457.276 108.595C457.236 108.545 457.802 107.959 458.886 106.915C460.119 105.76 461.693 104.287 463.607 102.494C467.857 98.6306 473.601 93.4114 480.291 87.3341L480.653 87.0041L481.011 87.3526C484.617 90.8677 488.522 94.672 492.61 98.6557L491.835 98.6372L493.376 97.2539C503.557 88.1234 512.817 79.9104 519.557 74.0113C522.828 71.1839 525.532 68.8462 527.58 67.076C529.491 65.4577 530.573 64.5957 530.625 64.6604Z" fill="#E0E0E0"/>
<path d="M530.625 85.1191C530.468 85.1191 530.326 82.8025 530.22 79.026C530.116 75.2495 530.047 70.0157 530.04 64.1826L530.625 64.8017C530.309 64.8017 529.97 64.8017 529.628 64.8017C523.896 64.8017 518.705 64.7331 514.947 64.6209C511.19 64.5087 508.868 64.3529 508.868 64.1813C508.868 64.011 511.19 63.8553 514.947 63.7431C518.705 63.6309 523.896 63.5609 529.628 63.5609C529.97 63.5609 530.309 63.5622 530.625 63.5622H531.211L531.21 64.1826C531.202 70.0157 531.134 75.2495 531.029 79.026C530.924 82.8025 530.782 85.1191 530.625 85.1191Z" fill="#E0E0E0"/>
<path d="M61.685 470.243C57.8112 474.493 57.9233 481.266 61.9367 485.37C65.9488 489.472 72.342 489.355 76.2159 485.103C80.0884 480.853 79.9763 474.08 75.9642 469.976C71.9521 465.872 65.5588 465.991 61.685 470.243ZM56.6686 456.959C58.4479 455.82 60.3418 454.956 62.2956 454.368L63.4556 448.467L72.8679 448.291L74.2223 454.147C76.1947 454.66 78.1173 455.453 79.9327 456.525L84.6899 453.223L91.4619 460.15L88.5139 465.302C89.5892 467.188 90.4041 469.195 90.9598 471.264L96.5294 472.493L96.6951 482.464L91.1691 483.899C90.6832 485.989 89.9343 488.024 88.9226 489.949L92.0401 494.989L85.5023 502.164L80.6379 499.038C78.8586 500.179 76.9635 501.042 75.0097 501.63L73.8497 507.531L64.4374 507.707L63.0843 501.851C61.1119 501.338 59.1893 500.545 57.3739 499.473L52.6166 502.775L45.8446 495.848L48.7926 490.696C47.7174 488.81 46.9012 486.805 46.3455 484.734L40.7759 483.506L40.6102 473.535L46.1362 472.099C46.6234 470.009 47.3722 467.974 48.384 466.049L45.2665 461.011L51.8042 453.835L56.6686 456.959Z" fill="#E0E0E0"/>
<path d="M61.6851 470.243C61.6851 470.243 62.2135 469.453 63.5654 468.495C64.8924 467.558 67.2124 466.516 70.1542 466.844C71.6021 467.017 73.187 467.517 74.6311 468.529C76.0602 469.542 77.4097 470.982 78.252 472.852C78.6955 473.77 79.0033 474.789 79.1715 475.854C79.3522 476.917 79.3783 478.035 79.2276 479.147C78.9722 481.382 77.9741 483.584 76.4241 485.316C74.8466 487.018 72.8032 488.152 70.7037 488.502C69.6595 488.7 68.6029 488.712 67.5937 488.558C66.5832 488.419 65.61 488.129 64.7279 487.69C62.9349 486.864 61.5294 485.486 60.5239 484.009C59.5184 482.515 58.99 480.854 58.777 479.327C58.3633 476.224 59.2654 473.733 60.1027 472.294C60.96 470.829 61.6851 470.243 61.6851 470.243C61.74 470.291 61.0759 470.944 60.2983 472.414C59.537 473.855 58.7321 476.291 59.1819 479.261C59.4124 480.723 59.9395 482.303 60.9151 483.713C61.8907 485.11 63.2402 486.406 64.9459 487.174C65.7845 487.583 66.7078 487.851 67.6659 487.978C68.6216 488.118 69.6222 488.102 70.6078 487.909C72.5926 487.572 74.5152 486.497 76.0079 484.889C77.4707 483.253 78.4164 481.18 78.6656 479.068C78.8127 478.016 78.7927 476.957 78.6258 475.95C78.4737 474.942 78.1884 473.973 77.7735 473.099C76.9885 471.32 75.7176 469.938 74.3669 468.953C73.0026 467.97 71.4949 467.468 70.1056 467.275C67.2884 466.904 65.0194 467.842 63.6837 468.697C62.3268 469.572 61.7337 470.299 61.6851 470.243Z" fill="#E0E0E0"/>
<path d="M56.6676 456.959C56.6676 456.968 56.563 456.909 56.3536 456.783C56.1244 456.643 55.8179 456.456 55.4216 456.213C54.5706 455.68 53.3458 454.914 51.7559 453.919L51.8705 453.904C50.2059 455.751 48.0179 458.18 45.3714 461.117L45.3888 460.926C46.3383 462.447 47.3961 464.14 48.525 465.951L48.5823 466.042L48.5325 466.137C47.608 467.911 46.8305 469.931 46.3221 472.147L46.2947 472.266L46.1825 472.295C44.4618 472.747 42.5978 473.237 40.6603 473.747L40.8173 473.532C40.8758 476.67 40.9381 480.002 41.0042 483.5L40.8222 483.269C42.548 483.645 44.4469 484.06 46.3944 484.486L46.5364 484.517L46.5763 484.664C47.0934 486.589 47.902 488.636 49.006 490.56L49.0845 490.697L49.006 490.834C48.0939 492.433 47.0884 494.195 46.0642 495.99L46.023 495.651C48.1525 497.825 50.4501 500.168 52.8025 502.57L52.4686 502.536C53.9489 501.506 55.5749 500.375 57.2221 499.228L57.3617 499.132L57.5074 499.217C59.1671 500.198 61.1071 501.035 63.1506 501.564L63.315 501.607L63.3562 501.781C63.781 503.616 64.2458 505.614 64.7143 507.636L64.4327 507.407C67.4131 507.35 70.6079 507.289 73.845 507.227L73.5684 507.47C73.9347 505.606 74.3297 503.595 74.7272 501.568L74.762 501.386L74.9315 501.336C76.7843 500.78 78.7044 499.922 80.4837 498.78L80.4887 498.778L80.6407 498.681L80.7889 498.778C82.4212 499.826 84.0447 500.869 85.6521 501.901L85.2945 501.95C87.5036 499.526 89.6854 497.136 91.8335 494.777L91.7998 495.156C90.7507 493.457 89.7128 491.778 88.6848 490.113L88.5901 489.962L88.6736 489.803C89.6742 487.905 90.4168 485.887 90.8965 483.828L90.9376 483.653L91.1021 483.611C92.9711 483.127 94.8114 482.65 96.6293 482.18L96.42 482.469C96.3664 479.065 96.3141 475.741 96.263 472.498L96.4748 472.77C94.5859 472.35 92.7294 471.938 90.9065 471.534L90.752 471.5L90.7096 471.34C90.1464 469.226 89.3228 467.24 88.2998 465.439L88.2213 465.3L88.2998 465.164C89.3128 463.399 90.2959 461.688 91.2553 460.017L91.2952 460.334C88.9166 457.891 86.6726 455.586 84.5357 453.392L84.811 453.419C83.1364 454.576 81.5627 455.663 80.0476 456.711L79.9417 456.782L79.832 456.717C77.9356 455.595 76.0355 454.835 74.1764 454.341L74.0643 454.311L74.0369 454.194C73.5522 452.064 73.1148 450.146 72.7012 448.335L72.8706 448.473C69.2236 448.523 66.1173 448.568 63.4583 448.605L63.5829 448.495C63.1057 450.849 62.7132 452.78 62.3868 454.389L62.3756 454.447L62.322 454.463C60.3296 455.053 58.9279 455.741 58.017 456.217C57.5822 456.457 57.2495 456.642 57.0053 456.777C56.776 456.91 56.6676 456.968 56.6676 456.959C56.6676 456.951 56.7748 456.873 56.9816 456.733C57.1972 456.593 57.5224 456.382 57.9734 456.127C58.8743 455.619 60.2711 454.897 62.2709 454.274L62.2049 454.347C62.5114 452.735 62.8789 450.798 63.3287 448.438L63.3487 448.331L63.4533 448.329C66.1123 448.267 69.2186 448.194 72.8644 448.111L73.0002 448.107L73.0338 448.248C73.4587 450.057 73.9073 451.972 74.4069 454.097L74.2674 453.951C76.1601 454.439 78.0988 455.201 80.0339 456.333L79.8196 456.341C81.331 455.286 82.8984 454.192 84.5693 453.027L84.7163 452.924L84.8434 453.054C86.989 455.239 89.2431 457.536 91.6291 459.966L91.7674 460.107L91.6678 460.283C90.7133 461.956 89.7365 463.671 88.7272 465.439L88.7285 465.164C89.7801 467.001 90.6274 469.03 91.2092 471.19L91.0124 470.996C92.8365 471.397 94.6943 471.802 96.5845 472.217L96.7926 472.263L96.7963 472.489C96.8524 475.731 96.9109 479.054 96.9707 482.459L96.9757 482.692L96.7614 482.748C94.9435 483.222 93.1044 483.701 91.2354 484.188L91.441 483.97C90.9513 486.081 90.1925 488.149 89.1708 490.096L89.1596 489.783C90.19 491.447 91.2292 493.126 92.2796 494.822L92.4054 495.025L92.2459 495.199C90.0978 497.558 87.9186 499.95 85.7106 502.375L85.5499 502.552L85.3518 502.424C83.7445 501.393 82.1209 500.35 80.4887 499.302H80.7877L80.7827 499.305C78.9586 500.477 76.9886 501.356 75.0885 501.925L75.2928 501.694C74.8941 503.719 74.4991 505.73 74.1328 507.593L74.0855 507.832L73.855 507.837C70.6178 507.895 67.4231 507.953 64.4427 508.007L64.2171 508.011L64.1623 507.778C63.6963 505.758 63.2353 503.757 62.8117 501.922L63.0172 502.141C60.924 501.595 58.9378 500.734 57.2395 499.726L57.5236 499.716C55.8739 500.858 54.2466 501.987 52.7639 503.014L52.5832 503.139L52.4287 502.981C50.08 500.573 47.7899 498.223 45.6642 496.044L45.5159 495.892L45.6231 495.706C46.6523 493.915 47.6628 492.155 48.5786 490.56V490.833C47.4559 488.863 46.6373 486.77 46.1165 484.803L46.2984 484.981C44.3522 484.548 42.4533 484.126 40.7288 483.742L40.5506 483.702L40.5481 483.509C40.497 480.011 40.4497 476.677 40.4048 473.539L40.4023 473.364L40.5618 473.322C42.5019 472.825 44.3684 472.345 46.0916 471.903L45.9533 472.052C46.4828 469.801 47.2852 467.755 48.2347 465.961L48.2409 466.147C47.1258 464.327 46.0816 462.627 45.1421 461.096L45.0786 460.99L45.1608 460.902C47.8385 457.996 50.0526 455.594 51.7372 453.767L51.7895 453.71L51.8518 453.751C53.4056 454.777 54.603 455.565 55.4341 456.113C55.8266 456.378 56.1294 456.581 56.3561 456.733C56.563 456.876 56.6676 456.951 56.6676 456.959Z" fill="#E0E0E0"/>
<path d="M127.439 436.941C125.121 439.487 125.188 443.54 127.59 445.996C129.991 448.454 133.819 448.381 136.137 445.838C138.455 443.293 138.389 439.239 135.987 436.783C133.585 434.326 129.758 434.397 127.439 436.941ZM124.435 428.991C125.501 428.308 126.635 427.791 127.805 427.44L128.499 423.906L134.133 423.802L134.944 427.306C136.124 427.615 137.275 428.089 138.363 428.731L141.21 426.753L145.263 430.901L143.499 433.984C144.143 435.113 144.63 436.314 144.963 437.553L148.297 438.289L148.396 444.258L145.089 445.117C144.797 446.368 144.349 447.585 143.743 448.739L145.61 451.755L141.696 456.051L138.784 454.18C137.719 454.861 136.585 455.379 135.415 455.73L134.721 459.264L129.088 459.368L128.277 455.863C127.096 455.556 125.945 455.08 124.858 454.439L122.011 456.416L117.957 452.269L119.722 449.185C119.078 448.057 118.589 446.856 118.258 445.616L114.923 444.881L114.824 438.912L118.132 438.054C118.423 436.802 118.872 435.584 119.477 434.432L117.611 431.414L121.525 427.122L124.435 428.991Z" fill="#F5F5F5"/>
<path d="M127.44 436.941C127.44 436.941 127.756 436.47 128.565 435.896C129.36 435.335 130.748 434.712 132.508 434.907C133.376 435.011 134.324 435.311 135.189 435.917C136.045 436.523 136.852 437.385 137.357 438.504C137.622 439.053 137.806 439.664 137.906 440.302C138.016 440.937 138.031 441.606 137.941 442.272C137.788 443.611 137.191 444.928 136.263 445.965C135.318 446.984 134.095 447.662 132.839 447.872C132.213 447.991 131.581 447.999 130.977 447.906C130.371 447.822 129.79 447.648 129.261 447.386C128.188 446.891 127.346 446.066 126.744 445.182C126.141 444.287 125.826 443.293 125.699 442.379C125.451 440.522 125.991 439.031 126.491 438.17C127.005 437.293 127.44 436.941 127.44 436.941C127.472 436.97 127.075 437.362 126.609 438.24C126.154 439.106 125.673 440.562 125.941 442.341C126.079 443.216 126.394 444.161 126.979 445.005C127.563 445.84 128.37 446.618 129.391 447.077C129.893 447.321 130.446 447.483 131.019 447.558C131.593 447.642 132.191 447.633 132.781 447.518C133.969 447.315 135.12 446.672 136.013 445.71C136.889 444.729 137.455 443.49 137.604 442.225C137.693 441.594 137.681 440.962 137.58 440.358C137.489 439.755 137.318 439.174 137.07 438.652C136.6 437.586 135.839 436.759 135.032 436.17C134.214 435.581 133.311 435.28 132.48 435.164C130.793 434.943 129.436 435.504 128.636 436.017C127.823 436.54 127.468 436.975 127.44 436.941Z" fill="#F5F5F5"/>
<path d="M124.436 428.99C124.436 428.995 124.373 428.961 124.248 428.886C124.111 428.801 123.927 428.689 123.689 428.544C123.181 428.225 122.447 427.765 121.496 427.171L121.564 427.161C120.568 428.267 119.259 429.721 117.674 431.48L117.685 431.365C118.253 432.276 118.885 433.289 119.561 434.373L119.596 434.427L119.566 434.484C119.012 435.547 118.547 436.756 118.243 438.082L118.227 438.152L118.16 438.171C117.129 438.441 116.014 438.734 114.854 439.039L114.947 438.911C114.982 440.788 115.02 442.784 115.06 444.878L114.951 444.74C115.983 444.966 117.121 445.213 118.287 445.468L118.372 445.486L118.395 445.575C118.704 446.727 119.189 447.952 119.849 449.103L119.897 449.186L119.849 449.268C119.304 450.225 118.702 451.28 118.089 452.354L118.064 452.152C119.338 453.452 120.714 454.856 122.123 456.293L121.923 456.273C122.809 455.657 123.782 454.978 124.768 454.293L124.851 454.235L124.938 454.287C125.932 454.873 127.094 455.374 128.316 455.691L128.414 455.716L128.439 455.82C128.693 456.919 128.972 458.116 129.253 459.325L129.085 459.188C130.869 459.155 132.78 459.118 134.718 459.081L134.553 459.226C134.771 458.111 135.008 456.905 135.246 455.692L135.267 455.584L135.368 455.554C136.478 455.222 137.627 454.708 138.693 454.025L138.695 454.023L138.786 453.966L138.874 454.023C139.853 454.65 140.823 455.274 141.785 455.893L141.571 455.922C142.894 454.471 144.2 453.041 145.487 451.628L145.466 451.854C144.839 450.839 144.216 449.833 143.602 448.836L143.544 448.745L143.594 448.652C144.194 447.515 144.638 446.307 144.925 445.074L144.95 444.969L145.048 444.945C146.167 444.655 147.269 444.369 148.358 444.088L148.232 444.26C148.199 442.223 148.168 440.234 148.137 438.292L148.266 438.455C147.134 438.204 146.023 437.957 144.931 437.714L144.839 437.694L144.813 437.598C144.475 436.332 143.983 435.144 143.371 434.067L143.324 433.984L143.371 433.902C143.978 432.846 144.566 431.822 145.141 430.821L145.164 431.01C143.74 429.548 142.397 428.169 141.118 426.856L141.283 426.872C140.28 427.565 139.338 428.214 138.431 428.841L138.367 428.885L138.301 428.846C137.167 428.173 136.03 427.719 134.917 427.423L134.85 427.406L134.834 427.335C134.543 426.06 134.28 424.913 134.034 423.828L134.135 423.909C131.952 423.941 130.093 423.966 128.5 423.989L128.575 423.923C128.29 425.332 128.055 426.487 127.86 427.451L127.852 427.487L127.82 427.496C126.627 427.848 125.789 428.26 125.243 428.547C124.983 428.689 124.783 428.8 124.638 428.882C124.501 428.962 124.436 428.995 124.436 428.99C124.436 428.986 124.501 428.939 124.624 428.854C124.752 428.771 124.948 428.644 125.217 428.492C125.757 428.189 126.593 427.756 127.79 427.382L127.75 427.427C127.935 426.462 128.154 425.302 128.423 423.89L128.434 423.826L128.498 423.824C130.09 423.788 131.949 423.743 134.131 423.693L134.213 423.692L134.233 423.776C134.487 424.859 134.756 426.004 135.054 427.277L134.972 427.19C136.105 427.481 137.265 427.937 138.423 428.617L138.295 428.622C139.2 427.99 140.138 427.335 141.137 426.637L141.226 426.575L141.303 426.652C142.586 427.961 143.934 429.336 145.364 430.791L145.447 430.875L145.387 430.979C144.815 431.983 144.231 433.008 143.627 434.067L143.628 433.902C144.257 435.003 144.764 436.216 145.112 437.508L144.995 437.392C146.086 437.632 147.199 437.875 148.33 438.123L148.455 438.151L148.457 438.287C148.491 440.227 148.526 442.218 148.562 444.253L148.565 444.395L148.436 444.428C147.348 444.711 146.247 444.998 145.128 445.289L145.251 445.159C144.959 446.422 144.504 447.662 143.892 448.826L143.886 448.64C144.501 449.635 145.124 450.639 145.754 451.655L145.828 451.777L145.734 451.882C144.448 453.293 143.143 454.725 141.821 456.177L141.724 456.282L141.607 456.206C140.644 455.588 139.673 454.965 138.695 454.337H138.874L138.871 454.338C137.778 455.039 136.6 455.567 135.463 455.908L135.585 455.768C135.346 456.981 135.109 458.185 134.89 459.3L134.862 459.443L134.724 459.445C132.786 459.481 130.874 459.515 129.09 459.547L128.954 459.549L128.923 459.411C128.644 458.202 128.367 457.004 128.114 455.906L128.236 456.036C126.984 455.71 125.794 455.195 124.778 454.592L124.949 454.585C123.961 455.269 122.987 455.945 122.1 456.56L121.991 456.634L121.899 456.539C120.492 455.097 119.122 453.691 117.849 452.388L117.761 452.296L117.825 452.184C118.44 451.112 119.046 450.059 119.594 449.103V449.267C118.922 448.089 118.431 446.835 118.12 445.658L118.228 445.765C117.063 445.506 115.927 445.251 114.895 445.023L114.788 444.999L114.787 444.883C114.756 442.789 114.727 440.794 114.701 438.915L114.7 438.81L114.794 438.786C115.957 438.486 117.073 438.201 118.105 437.936L118.023 438.024C118.339 436.676 118.819 435.453 119.388 434.38L119.392 434.491C118.724 433.402 118.1 432.383 117.537 431.466L117.499 431.403L117.548 431.35C119.15 429.612 120.476 428.173 121.485 427.08L121.516 427.046L121.554 427.071C122.483 427.685 123.2 428.156 123.698 428.483C123.932 428.642 124.114 428.764 124.249 428.854C124.373 428.94 124.436 428.985 124.436 428.99Z" fill="#F5F5F5"/>
<path d="M137.367 514.233C133.819 518.125 131.915 523.249 132.005 528.659C132.094 534.07 134.168 539.12 137.842 542.879C141.434 546.551 146.136 548.562 151.116 548.562C151.23 548.562 151.345 548.56 151.461 548.558C156.568 548.463 161.334 546.266 164.882 542.374C168.43 538.481 170.334 533.358 170.244 527.946C170.156 522.537 168.081 517.486 164.407 513.728C160.815 510.056 156.113 508.044 151.133 508.044C151.019 508.044 150.904 508.046 150.789 508.048C145.682 508.142 140.915 510.339 137.367 514.233ZM151.116 548.628C146.119 548.628 141.403 546.612 137.799 542.925C134.112 539.154 132.032 534.089 131.942 528.66C131.851 523.232 133.763 518.091 137.323 514.185C140.882 510.28 145.665 508.076 150.788 507.981C150.903 507.98 151.019 507.978 151.133 507.978C156.13 507.978 160.846 509.995 164.45 513.682C168.137 517.452 170.217 522.517 170.307 527.946C170.396 533.374 168.486 538.514 164.926 542.42C161.368 546.326 156.586 548.529 151.462 548.624C151.346 548.626 151.23 548.628 151.116 548.628ZM129.165 569.612L129.181 569.621C132.578 571.626 136.219 573.144 140.004 574.133L140.023 574.138L140.028 574.158L142.591 585.237L160.393 584.907L162.591 573.718L162.61 573.712C166.361 572.584 169.95 570.932 173.278 568.801L173.295 568.792L173.311 568.801L182.514 574.714L194.88 561.143L188.97 551.589L188.979 551.573C190.872 547.973 192.305 544.115 193.237 540.105L193.242 540.086L193.26 540.081L203.718 537.366L203.407 518.505L192.846 516.177L192.842 516.158C191.775 512.18 190.215 508.377 188.204 504.854L188.195 504.837L188.204 504.821L193.785 495.071L180.975 481.969L171.958 488.231L171.941 488.222C168.549 486.218 164.908 484.7 161.117 483.71L161.099 483.705L161.094 483.685L158.531 472.606L140.728 472.936L138.53 484.125L138.512 484.131C134.76 485.26 131.171 486.913 127.844 489.043L127.828 489.052L127.812 489.043L118.608 483.129L106.241 496.7L112.151 506.256L112.142 506.272C110.248 509.874 108.817 513.731 107.883 517.738L107.88 517.757L107.861 517.762L97.4032 520.479L97.7147 539.338L108.276 541.667L108.281 541.686C109.345 545.659 110.905 549.461 112.917 552.989L112.927 553.006L112.917 553.022L107.338 562.772L120.146 575.874L129.165 569.612ZM142.542 585.303L142.537 585.278L139.972 574.192C136.192 573.204 132.558 571.69 129.167 569.688L120.139 575.958L120.122 575.94L107.258 562.782L107.27 562.76L112.854 553.006C110.846 549.484 109.29 545.689 108.226 541.724L97.6549 539.392L97.6537 539.365L97.3397 520.427L97.3646 520.421L107.828 517.703C108.76 513.703 110.19 509.853 112.079 506.258L106.161 496.692L106.179 496.674L118.598 483.048L118.619 483.059L127.828 488.976C131.15 486.85 134.732 485.202 138.476 484.073L140.677 472.873L140.702 472.872L158.579 472.54L158.586 472.565L161.15 483.651C164.934 484.641 168.568 486.155 171.955 488.155L180.982 481.885L181.001 481.903L193.864 495.061L193.851 495.083L188.268 504.837C190.274 508.355 191.83 512.15 192.895 516.12L203.466 518.451L203.468 518.478L203.782 537.417L203.757 537.424L193.293 540.14C192.361 544.144 190.93 547.994 189.043 551.586L194.96 561.151L194.943 561.169L182.524 574.795L182.503 574.784L173.295 568.869C169.971 570.994 166.389 572.643 162.645 573.77L160.445 584.97L160.42 584.971L142.542 585.303Z" fill="#E0E0E0"/>
<path d="M137.345 514.209C137.345 514.209 138.347 512.713 140.911 510.893C143.428 509.118 147.829 507.14 153.407 507.763C156.155 508.089 159.16 509.04 161.9 510.959C164.61 512.88 167.17 515.611 168.768 519.157C169.61 520.899 170.194 522.834 170.511 524.853C170.855 526.869 170.905 528.989 170.618 531.101C170.133 535.339 168.242 539.516 165.301 542.799C162.309 546.029 158.433 548.179 154.45 548.843C152.469 549.22 150.467 549.243 148.553 548.949C146.635 548.685 144.79 548.134 143.118 547.304C139.715 545.737 137.047 543.122 135.141 540.32C133.233 537.487 132.233 534.336 131.828 531.441C131.044 525.555 132.755 520.829 134.342 518.1C135.969 515.323 137.345 514.209 137.345 514.209C137.448 514.301 136.189 515.541 134.713 518.326C133.271 521.064 131.744 525.681 132.595 531.316C133.034 534.092 134.032 537.084 135.883 539.76C137.734 542.408 140.293 544.87 143.53 546.326C145.12 547.101 146.872 547.609 148.689 547.848C150.503 548.116 152.398 548.085 154.269 547.721C158.035 547.078 161.681 545.04 164.511 541.991C167.288 538.886 169.081 534.957 169.553 530.948C169.832 528.954 169.793 526.947 169.477 525.035C169.188 523.123 168.647 521.285 167.859 519.629C166.372 516.255 163.961 513.631 161.399 511.764C158.81 509.899 155.95 508.947 153.317 508.58C147.972 507.875 143.668 509.653 141.137 511.277C138.561 512.938 137.436 514.316 137.345 514.209Z" fill="#E0E0E0"/>
<path d="M127.828 489.014C127.828 489.031 127.628 488.919 127.232 488.681C126.799 488.416 126.217 488.06 125.464 487.598C123.85 486.589 121.528 485.136 118.511 483.248L118.728 483.218C115.572 486.722 111.422 491.329 106.402 496.902L106.434 496.535C108.237 499.425 110.24 502.634 112.384 506.068L112.491 506.24L112.396 506.422C110.643 509.785 109.17 513.617 108.203 517.822L108.152 518.045L107.94 518.101C104.675 518.961 101.141 519.889 97.464 520.855L97.763 520.446C97.8739 526.4 97.9923 532.72 98.1169 539.357L97.773 538.918C101.045 539.632 104.648 540.417 108.343 541.225L108.612 541.285L108.687 541.564C109.669 545.214 111.201 549.098 113.294 552.746L113.444 553.006L113.294 553.266C111.566 556.298 109.659 559.64 107.716 563.046L107.638 562.405C111.677 566.527 116.033 570.971 120.498 575.527L119.862 575.463C122.671 573.508 125.756 571.363 128.879 569.188L129.144 569.005L129.42 569.168C132.569 571.027 136.248 572.615 140.125 573.619L140.436 573.698L140.513 574.031C141.319 577.509 142.2 581.302 143.09 585.134L142.557 584.699C148.21 584.592 154.268 584.476 160.409 584.359L159.885 584.819C160.579 581.283 161.328 577.47 162.082 573.627L162.149 573.281L162.469 573.186C165.984 572.133 169.625 570.504 173 568.338L173.01 568.333L173.298 568.152L173.58 568.333C176.676 570.322 179.754 572.299 182.804 574.258L182.125 574.351C186.316 569.754 190.453 565.217 194.529 560.747L194.465 561.462C192.476 558.243 190.507 555.055 188.557 551.901L188.377 551.611L188.537 551.309C190.432 547.712 191.841 543.884 192.752 539.978L192.829 539.645L193.142 539.566C196.687 538.649 200.178 537.744 203.626 536.852L203.227 537.4C203.126 530.944 203.028 524.637 202.932 518.488L203.333 519.003C199.749 518.207 196.229 517.426 192.77 516.659L192.478 516.594L192.398 516.29C191.328 512.28 189.766 508.513 187.825 505.098L187.677 504.835L187.825 504.575C189.748 501.229 191.613 497.985 193.433 494.815L193.507 495.415C188.998 490.783 184.74 486.41 180.687 482.248L181.209 482.299C178.032 484.494 175.049 486.555 172.173 488.541L171.972 488.68L171.764 488.556C168.168 486.425 164.564 484.984 161.037 484.048L160.824 483.991L160.773 483.768C159.854 479.73 159.024 476.092 158.239 472.655L158.56 472.918C151.644 473.014 145.751 473.095 140.706 473.166L140.943 472.959C140.037 477.424 139.296 481.086 138.677 484.138L138.653 484.25L138.551 484.279C134.773 485.396 132.115 486.703 130.388 487.607C129.563 488.062 128.93 488.413 128.468 488.668C128.033 488.921 127.828 489.03 127.828 489.014C127.828 488.998 128.032 488.85 128.423 488.585C128.831 488.32 129.45 487.92 130.305 487.436C132.013 486.473 134.662 485.103 138.455 483.92L138.33 484.061C138.912 481.003 139.61 477.328 140.461 472.852L140.5 472.65L140.699 472.645C145.741 472.527 151.634 472.39 158.549 472.229L158.807 472.223L158.871 472.491C159.675 475.922 160.528 479.555 161.475 483.586L161.211 483.306C164.8 484.234 168.477 485.678 172.148 487.827L171.741 487.843C174.608 485.842 177.581 483.766 180.749 481.555L181.028 481.359L181.271 481.607C185.339 485.751 189.613 490.106 194.141 494.718L194.404 494.984L194.215 495.317C192.404 498.493 190.55 501.744 188.638 505.098L188.639 504.577C190.634 508.063 192.24 511.909 193.344 516.005L192.971 515.638C196.431 516.396 199.954 517.168 203.54 517.954L203.935 518.039L203.942 518.468C204.049 524.618 204.16 530.924 204.274 537.381L204.281 537.824L203.875 537.929C200.428 538.827 196.938 539.736 193.395 540.659L193.785 540.247C192.856 544.251 191.417 548.174 189.477 551.864L189.457 551.274C191.41 554.429 193.382 557.614 195.375 560.83L195.613 561.214L195.311 561.547C191.237 566.02 187.102 570.558 182.913 575.158L182.609 575.492L182.236 575.251C179.185 573.293 176.108 571.316 173.01 569.328H173.578L173.568 569.333C170.107 571.555 166.373 573.225 162.768 574.303L163.154 573.862C162.399 577.705 161.649 581.521 160.954 585.056L160.864 585.509L160.429 585.515C154.287 585.626 148.228 585.737 142.575 585.84L142.146 585.846L142.045 585.404C141.16 581.572 140.284 577.777 139.482 574.298L139.87 574.711C135.901 573.677 132.134 572.045 128.913 570.133L129.451 570.112C126.323 572.281 123.235 574.421 120.423 576.369L120.08 576.605L119.787 576.305C115.333 571.738 110.987 567.282 106.957 563.15L106.676 562.861L106.879 562.509C108.831 559.11 110.748 555.772 112.486 552.746V553.265C110.356 549.529 108.803 545.557 107.814 541.827L108.158 542.165C104.466 541.344 100.866 540.541 97.596 539.813L97.2584 539.738L97.2521 539.372C97.1562 532.736 97.0665 526.416 96.9805 520.46L96.9755 520.128L97.2783 520.051C100.96 519.106 104.499 518.198 107.767 517.36L107.504 517.639C108.51 513.371 110.031 509.491 111.834 506.091L111.845 506.443C109.728 502.99 107.748 499.764 105.968 496.859L105.846 496.659L106 496.492C111.081 490.981 115.282 486.425 118.476 482.96L118.575 482.852L118.693 482.93C121.641 484.873 123.912 486.37 125.489 487.409C126.233 487.909 126.807 488.297 127.236 488.585C127.628 488.853 127.828 488.998 127.828 489.014Z" fill="#E0E0E0"/>
</g>
<mask id="mask1_2002_3" style="mask-type:luminance" maskUnits="userSpaceOnUse" x="0" y="0" width="623" height="660">
<path d="M0 0H623V660H0V0Z" fill="white"/>
</mask>
<g mask="url(#mask1_2002_3)">
<path d="M565.901 249.957L562.916 245.291C537.749 205.96 492.246 182.252 444.272 185.128C438.105 185.498 431.965 186.29 425.907 187.52C382.288 196.375 344.334 227.655 328.603 267.718C319.35 291.28 316.766 318.407 299.207 337.109C276.358 361.45 237.564 362.214 203.456 361.204C169.349 360.197 130.529 361.056 107.789 385.492C93.5489 400.795 89.0234 422.559 90.171 443.054C93.2112 497.315 133.081 545.83 183.783 569.946C234.486 594.063 294.184 596.221 349.674 585.614C427.411 570.752 501.339 529.94 545.773 466.905C590.209 403.871 601.455 317.993 565.901 249.957Z" fill="#EBEBEB"/>
<path d="M167.16 121.658C167.16 154.905 141.719 181.855 110.338 181.855C78.9545 181.855 53.5137 154.905 53.5137 121.658C53.5137 88.4114 78.9545 61.4609 110.338 61.4609C141.719 61.4609 167.16 88.4114 167.16 121.658Z" fill="#EBEBEB"/>
</g>
<path d="M519.888 580.695L146.306 609.993L111.004 104.837L484.586 75.5372L519.888 580.695Z" fill="white"/>
<path d="M111.672 105.447L146.881 609.288L519.221 580.085L484.012 76.2447L111.672 105.447ZM145.73 610.702L145.685 610.045L110.337 104.227L110.958 104.18L485.162 74.8309L485.209 75.4883L520.556 581.304L519.935 581.353L145.73 610.702Z" fill="#263238"/>
<path d="M452.096 104.425L351.447 112.319L350.968 105.472L451.617 97.5786L452.096 104.425Z" fill="#004E98"/>
<mask id="mask2_2002_3" style="mask-type:luminance" maskUnits="userSpaceOnUse" x="0" y="0" width="623" height="660">
<path d="M0 0H623V660H0V0Z" fill="white"/>
</mask>
<g mask="url(#mask2_2002_3)">
<path d="M450.42 150.158C450.421 150.182 450.209 150.221 449.804 150.276C449.325 150.331 448.738 150.4 448.03 150.481C446.388 150.639 444.179 150.851 441.495 151.11C435.882 151.603 428.301 152.271 419.923 153.008C411.496 153.743 403.861 154.329 398.331 154.707C395.641 154.876 393.427 155.014 391.779 155.117C391.068 155.148 390.48 155.173 389.998 155.194C389.589 155.203 389.373 155.198 389.372 155.174C389.371 155.15 389.583 155.109 389.988 155.055C390.467 155 391.053 154.933 391.762 154.851C393.404 154.694 395.612 154.481 398.296 154.222C403.909 153.729 411.491 153.061 419.871 152.323C428.296 151.589 435.931 151.003 441.461 150.625C444.151 150.456 446.364 150.318 448.01 150.214C448.724 150.184 449.312 150.158 449.794 150.138C450.203 150.129 450.419 150.134 450.42 150.158Z" fill="#004E98"/>
<path d="M456.453 175.973C456.467 176.162 434.52 178.038 407.44 180.162C380.352 182.287 358.389 183.855 358.375 183.665C358.363 183.476 380.305 181.601 407.393 179.477C434.471 177.353 456.439 175.783 456.453 175.973Z" fill="#263238"/>
<path d="M458.109 208.883C458.123 209.073 436.174 210.948 409.096 213.072C382.008 215.197 360.045 216.765 360.031 216.575C360.018 216.386 381.96 214.51 409.048 212.386C436.127 210.263 458.095 208.693 458.109 208.883Z" fill="#263238"/>
<path d="M458.109 192.428C458.123 192.618 436.174 194.493 409.096 196.617C382.008 198.742 360.045 200.31 360.031 200.12C360.018 199.931 381.96 198.056 409.048 195.932C436.127 193.808 458.095 192.238 458.109 192.428Z" fill="#263238"/>
<path d="M252.254 422.848C252.267 423.038 240.891 424.085 226.848 425.185C212.799 426.286 201.405 427.027 201.392 426.837C201.378 426.648 212.752 425.601 226.8 424.5C240.843 423.398 252.241 422.658 252.254 422.848Z" fill="#004E98"/>
<path d="M230.999 454.48C231.012 454.67 215.771 456.019 196.961 457.493C178.145 458.969 162.885 460.012 162.872 459.823C162.859 459.633 178.097 458.284 196.914 456.808C215.723 455.333 230.986 454.29 230.999 454.48Z" fill="#004E98"/>
<path d="M355.088 457.155C355.101 457.345 312.272 460.859 259.44 465.001C206.588 469.147 163.748 472.353 163.734 472.163C163.722 471.974 206.541 468.461 259.392 464.316C312.225 460.172 355.074 456.965 355.088 457.155Z" fill="#263238"/>
<path d="M233.143 485.16C233.156 485.35 217.915 486.699 199.105 488.173C180.289 489.649 165.029 490.692 165.016 490.503C165.002 490.313 180.241 488.964 199.058 487.488C217.867 486.012 233.13 484.97 233.143 485.16Z" fill="#004E98"/>
<path d="M357.232 487.834C357.245 488.025 314.417 491.537 261.584 495.681C208.732 499.827 165.892 503.032 165.878 502.842C165.866 502.654 208.685 499.14 261.536 494.995C314.369 490.852 357.218 487.644 357.232 487.834Z" fill="#263238"/>
<path d="M235.287 515.839C235.3 516.029 220.059 517.378 201.249 518.853C182.433 520.329 167.173 521.371 167.16 521.183C167.146 520.993 182.385 519.644 201.202 518.168C220.011 516.692 235.274 515.649 235.287 515.839Z" fill="#004E98"/>
<path d="M359.376 518.514C359.389 518.704 316.56 522.217 263.728 526.36C210.876 530.505 168.036 533.711 168.022 533.521C168.01 533.334 210.829 529.82 263.68 525.675C316.513 521.53 359.362 518.324 359.376 518.514Z" fill="#263238"/>
<path d="M240.011 546.897C240.024 547.087 224.783 548.436 205.973 549.91C187.157 551.386 171.898 552.429 171.884 552.24C171.871 552.05 187.109 550.701 205.926 549.225C224.735 547.749 239.998 546.707 240.011 546.897Z" fill="#004E98"/>
<path d="M364.101 549.572C364.114 549.762 321.286 553.274 268.453 557.418C215.601 561.564 172.76 564.769 172.747 564.579C172.734 564.391 215.554 560.877 268.404 556.733C321.238 552.589 364.087 549.381 364.101 549.572Z" fill="#263238"/>
<path d="M189.732 432.454L166.371 434.286L165.272 418.562L188.633 416.729L189.732 432.454Z" fill="#004E98"/>
<path d="M183.085 437.924L173.705 438.66L173.362 433.737L182.741 433.002L183.085 437.924Z" fill="#004E98"/>
<path d="M186.659 437.477C186.675 437.667 183.172 438.154 178.837 438.565C174.5 438.978 170.973 439.158 170.956 438.97C170.94 438.78 174.442 438.293 178.779 437.881C183.114 437.469 186.642 437.287 186.659 437.477Z" fill="#004E98"/>
<path d="M377.378 398.876L391.984 390.396L406.359 396.175L392.895 405.151L377.378 398.876Z" fill="#004E98"/>
<path d="M380.871 402.422L381.465 412.066L403.961 409.97L403.19 400.672L392.794 407.329L380.871 402.422Z" fill="#004E98"/>
<path d="M469.74 400.756C469.754 400.946 458.378 401.992 444.334 403.093C430.287 404.194 418.891 404.935 418.878 404.745C418.865 404.556 430.238 403.509 444.287 402.407C458.331 401.306 469.726 400.566 469.74 400.756Z" fill="#004E98"/>
<path d="M417.569 433.878C417.583 434.068 409.764 434.835 400.109 435.593C390.451 436.349 382.614 436.81 382.601 436.621C382.588 436.432 390.404 435.664 400.061 434.906C409.715 434.15 417.555 433.688 417.569 433.878Z" fill="#263238"/>
<path d="M481.75 442.258C481.764 442.448 459.785 444.326 432.668 446.453C405.541 448.58 383.546 450.151 383.534 449.962C383.52 449.772 405.494 447.895 432.619 445.767C459.737 443.64 481.736 442.068 481.75 442.258Z" fill="#263238"/>
<path d="M420.189 468.157C420.202 468.347 412.384 469.114 402.73 469.87C393.071 470.628 385.233 471.089 385.222 470.899C385.208 470.711 393.023 469.943 402.681 469.185C412.336 468.428 420.175 467.967 420.189 468.157Z" fill="#263238"/>
<path d="M484.37 476.537C484.384 476.727 462.405 478.603 435.287 480.731C408.161 482.859 386.168 484.429 386.154 484.239C386.14 484.051 408.113 482.173 435.24 480.046C462.358 477.919 484.356 476.347 484.37 476.537Z" fill="#263238"/>
<path d="M422.181 502.027C422.194 502.217 414.376 502.984 404.72 503.742C395.063 504.498 387.225 504.959 387.213 504.769C387.199 504.581 395.015 503.813 404.673 503.055C414.327 502.298 422.167 501.837 422.181 502.027Z" fill="#263238"/>
<path d="M486.362 510.407C486.375 510.597 464.397 512.474 437.279 514.601C410.153 516.729 388.158 518.3 388.145 518.111C388.132 517.921 410.105 516.044 437.231 513.916C464.349 511.789 486.348 510.217 486.362 510.407Z" fill="#263238"/>
<path d="M425.748 537.846C425.762 538.036 417.943 538.803 408.288 539.561C398.63 540.317 390.793 540.778 390.78 540.588C390.767 540.4 398.583 539.632 408.241 538.874C417.896 538.117 425.734 537.656 425.748 537.846Z" fill="#263238"/>
<path d="M489.929 546.226C489.943 546.416 467.965 548.293 440.847 550.421C413.72 552.548 391.726 554.119 391.712 553.93C391.7 553.74 413.673 551.863 440.798 549.735C467.916 547.608 489.916 546.036 489.929 546.226Z" fill="#263238"/>
<path d="M369.347 149.168C371.252 148.14 372.502 145.88 372.336 143.347C372.118 140.028 369.559 137.512 366.621 137.729C363.684 137.945 361.481 140.81 361.699 144.128C361.869 146.685 363.429 148.75 365.48 149.47C357.388 151.419 358.419 160.81 358.419 160.81L377.773 159.388C377.773 159.388 377.548 149.829 369.347 149.168Z" fill="#004E98"/>
<path d="M400.88 282.247C400.894 282.437 393.014 283.209 383.283 283.972C373.548 284.735 365.649 285.2 365.636 285.011C365.622 284.822 373.5 284.05 383.235 283.286C392.965 282.523 400.867 282.057 400.88 282.247Z" fill="#263238"/>
<path d="M402.213 298.727C402.227 298.917 394.348 299.689 384.616 300.452C374.881 301.215 366.982 301.681 366.969 301.491C366.955 301.302 374.833 300.53 384.568 299.767C394.298 299.003 402.2 298.537 402.213 298.727Z" fill="#263238"/>
<path d="M470.568 278.716L413.214 283.215C412.143 283.298 411.212 282.448 411.132 281.314C411.053 280.18 411.857 279.193 412.927 279.108L470.281 274.611C471.352 274.527 472.282 275.378 472.362 276.512C472.442 277.644 471.637 278.633 470.568 278.716Z" fill="#E0E0E0"/>
<path d="M462.187 279.374L413.214 283.215C412.143 283.298 411.213 282.448 411.132 281.314C411.053 280.18 411.857 279.193 412.927 279.108L461.9 275.268C462.969 275.184 463.901 276.035 463.98 277.169C464.059 278.302 463.256 279.291 462.187 279.374Z" fill="#004E98"/>
<path d="M471.652 294.223L414.297 298.722C413.227 298.806 412.295 297.955 412.216 296.821C412.137 295.687 412.94 294.7 414.011 294.615L471.365 290.118C472.434 290.033 473.366 290.885 473.445 292.019C473.525 293.153 472.721 294.14 471.652 294.223Z" fill="#E0E0E0"/>
<path d="M454.54 295.566L414.297 298.722C413.228 298.806 412.296 297.955 412.216 296.821C412.137 295.687 412.94 294.7 414.011 294.615L454.253 291.46C455.323 291.376 456.255 292.227 456.333 293.361C456.413 294.494 455.609 295.481 454.54 295.566Z" fill="#004E98"/>
<path d="M403.907 315.554C403.92 315.745 396.041 316.517 386.309 317.28C376.574 318.043 368.676 318.509 368.662 318.319C368.649 318.13 376.526 317.358 386.261 316.595C395.992 315.83 403.893 315.366 403.907 315.554Z" fill="#263238"/>
<path d="M405.24 332.034C405.253 332.225 397.374 332.997 387.642 333.76C377.907 334.524 370.008 334.989 369.995 334.8C369.982 334.61 377.859 333.838 387.594 333.075C397.324 332.31 405.227 331.846 405.24 332.034Z" fill="#263238"/>
<path d="M473.594 312.024L416.241 316.522C415.17 316.607 414.238 315.755 414.16 314.622C414.08 313.488 414.884 312.5 415.953 312.417L473.307 307.919C474.378 307.834 475.31 308.686 475.388 309.819C475.468 310.953 474.664 311.941 473.594 312.024Z" fill="#E0E0E0"/>
<path d="M465.213 312.681L416.24 316.522C415.171 316.607 414.239 315.755 414.159 314.621C414.08 313.488 414.883 312.5 415.953 312.417L464.926 308.576C465.995 308.491 466.927 309.343 467.006 310.477C467.085 311.611 466.282 312.598 465.213 312.681Z" fill="#004E98"/>
<path d="M474.678 327.531L417.323 332.03C416.253 332.113 415.321 331.263 415.243 330.129C415.163 328.995 415.967 328.008 417.037 327.923L474.391 323.426C475.461 323.341 476.393 324.193 476.471 325.327C476.551 326.459 475.747 327.448 474.678 327.531Z" fill="#E0E0E0"/>
<path d="M457.566 328.873L417.323 332.029C416.254 332.114 415.322 331.262 415.242 330.128C415.163 328.994 415.966 328.007 417.037 327.924L457.279 324.768C458.349 324.683 459.281 325.535 459.359 326.669C459.439 327.801 458.635 328.79 457.566 328.873Z" fill="#004E98"/>
<path d="M407.238 349.604C407.252 349.795 399.372 350.567 389.641 351.33C379.905 352.093 372.006 352.557 371.994 352.369C371.98 352.18 379.857 351.408 389.592 350.643C399.322 349.88 407.225 349.414 407.238 349.604Z" fill="#263238"/>
<path d="M476.926 346.074L419.572 350.572C418.501 350.657 417.57 349.805 417.49 348.671C417.41 347.538 418.215 346.55 419.284 346.467L476.639 341.969C477.709 341.884 478.64 342.735 478.719 343.869C478.798 345.002 477.995 345.991 476.926 346.074Z" fill="#E0E0E0"/>
<path d="M451.386 348.077L419.572 350.573C418.5 350.656 417.57 349.806 417.49 348.671C417.41 347.538 418.215 346.551 419.284 346.466L451.1 343.972C452.169 343.887 453.101 344.738 453.179 345.872C453.259 347.005 452.455 347.994 451.386 348.077Z" fill="#004E98"/>
<path d="M381.804 265.449L379.788 261.684C380.68 260.15 381.194 258.344 381.194 256.409C381.194 250.848 376.939 246.339 371.689 246.339C366.439 246.339 362.183 250.848 362.183 256.409C362.183 261.972 366.439 266.481 371.689 266.481C373.881 266.481 375.899 265.693 377.506 264.372L377.504 264.377L381.804 265.449Z" fill="#004E98"/>
<path d="M455.454 251.135C455.468 251.325 442.178 252.526 425.774 253.817C409.364 255.111 396.056 256.004 396.042 255.814C396.03 255.625 409.317 254.424 425.726 253.132C442.129 251.84 455.44 250.945 455.454 251.135Z" fill="#004E98"/>
</g>
<path d="M118.484 104.777L142.282 403.031L352.271 386.485L329.589 87.6946L118.484 104.777Z" fill="#EBEBEB"/>
<path d="M355.204 376.121L147.657 392.397L126.783 93.6841L334.329 77.4058L355.204 376.121Z" fill="#FAFAFA"/>
<path d="M127.45 94.2933L148.233 391.691L354.537 375.51L333.754 78.1128L127.45 94.2933ZM147.082 393.104L147.036 392.447L126.115 93.0736L126.736 93.0261L334.905 76.6977L334.951 77.3564L355.872 376.73L355.251 376.779L147.082 393.104Z" fill="#263238"/>
<mask id="mask3_2002_3" style="mask-type:luminance" maskUnits="userSpaceOnUse" x="0" y="0" width="623" height="660">
<path d="M0 0H623V660H0V0Z" fill="white"/>
</mask>
<g mask="url(#mask3_2002_3)">
<path d="M292.574 122.627C292.563 122.628 292.533 122.458 292.486 122.125C292.437 121.757 292.371 121.267 292.289 120.644C292.125 119.3 291.892 117.386 291.596 114.939C291.304 112.448 290.95 109.42 290.539 105.909C290.314 104.153 290.195 102.247 289.734 100.327C289.496 99.3724 289.157 98.4115 288.604 97.5706C288.052 96.739 287.269 96.0328 286.31 95.7068C284.395 95.027 282.045 95.7068 280.426 97.2908C278.777 98.9051 277.86 101.326 277.405 103.852C276.489 108.978 276.947 114.626 277.897 120.409C278.386 123.304 278.908 126.287 279.53 129.29C280.168 132.28 281.029 135.312 282.576 138.019C284.106 140.694 286.482 142.972 289.377 144.004C290.812 144.507 292.376 144.689 293.87 144.345C295.373 144.047 296.754 143.204 297.908 142.103C300.208 139.836 301.483 136.624 301.852 133.402C302.257 130.155 301.941 126.893 301.614 123.712C300.942 117.327 300.294 111.169 299.676 105.301C299.37 102.367 299.069 99.5057 298.779 96.7258C298.489 93.9459 298.226 91.2491 297.76 88.687C297.308 86.1249 296.637 83.6921 295.632 81.5353C294.626 79.381 293.252 77.5343 291.623 76.176C288.325 73.4582 284.384 72.616 281.107 72.8153C277.795 73.0212 275.037 74.2581 273.295 75.8962C271.52 77.5211 270.725 79.3401 270.304 80.5505C269.902 81.7874 269.816 82.4777 269.776 82.4685C269.776 82.4685 269.815 81.7702 270.181 80.5056C270.567 79.2675 271.336 77.3931 273.129 75.6956C274.89 73.9848 277.703 72.678 281.085 72.4312C284.431 72.1923 288.477 73.0107 291.906 75.7932C293.602 77.1872 295.035 79.0906 296.079 81.2976C297.124 83.5087 297.818 85.9876 298.288 88.5788C298.772 91.1713 299.046 93.8825 299.346 96.6585C299.646 99.4371 299.954 102.298 300.271 105.229C300.9 111.097 301.56 117.254 302.245 123.638C302.577 126.826 302.906 130.135 302.492 133.49C302.111 136.823 300.789 140.205 298.347 142.61C297.121 143.783 295.629 144.692 294.001 145.018C292.381 145.389 290.696 145.188 289.172 144.654C286.102 143.553 283.629 141.162 282.033 138.369C280.433 135.56 279.565 132.456 278.925 129.435C278.304 126.399 277.793 123.432 277.308 120.515C276.37 114.699 275.917 108.977 276.878 103.743C277.358 101.156 278.314 98.62 280.087 96.9001C281.845 95.2105 284.342 94.4897 286.459 95.2474C287.515 95.6157 288.375 96.4051 288.963 97.3066C289.552 98.2174 289.896 99.2299 290.134 100.217C290.593 102.206 290.69 104.109 290.901 105.864C291.268 109.379 291.586 112.414 291.846 114.909C292.092 117.361 292.284 119.281 292.418 120.627C292.474 121.254 292.518 121.748 292.55 122.116C292.577 122.453 292.585 122.626 292.574 122.627Z" fill="#263238"/>
<path d="M207.11 112.031L190.63 104.776C186.178 107.782 178.919 116.028 176.894 125.244C175.698 130.692 175.402 135.085 175.673 140.671C175.946 146.256 175.471 152.164 172.557 156.828C170.48 160.149 167.131 163.037 167.068 167.019C166.996 171.605 171.478 175.549 170.565 180.033C169.835 183.625 166.059 185.44 164.082 188.459C161.215 192.843 162.602 198.831 164.469 203.784C168.977 215.733 159.383 232.919 167.838 242.155C176.167 234.908 200.82 221.475 209.148 214.228C210.997 212.619 212.909 210.927 213.901 208.619C215.343 205.266 214.561 201.367 213.812 197.769C207.965 169.681 205.703 140.757 207.11 112.031Z" fill="#263238"/>
<path d="M305.619 318.047L297.495 309.327L210.645 335.277C210.645 335.277 205.875 375.727 206.366 378.311C206.857 380.897 206.33 388.287 206.33 388.287L326.183 378.396C326.183 378.396 327.573 343.952 305.619 318.047Z" fill="#263238"/>
<path d="M234.133 353.203C234.17 353.23 233.994 353.593 233.642 354.229C233.28 354.859 232.748 355.764 232.007 356.829C231.262 357.889 230.31 359.122 229.035 360.273C227.767 361.426 226.133 362.424 224.294 363.047C220.647 364.309 217.152 364.604 214.665 364.567C213.418 364.551 212.412 364.472 211.721 364.389C211.029 364.303 210.65 364.225 210.654 364.179C210.66 364.07 212.195 364.169 214.659 364.082C217.117 363.994 220.529 363.626 224.093 362.393C225.86 361.794 227.413 360.867 228.654 359.786C229.897 358.709 230.864 357.537 231.644 356.531C233.183 354.494 234.047 353.141 234.133 353.203Z" fill="#455A64"/>
<path d="M262.711 383.728C262.667 383.736 262.548 383.29 262.371 382.474C262.191 381.659 261.962 380.471 261.704 379C261.188 376.057 260.581 371.97 260.107 367.429C259.634 362.886 259.385 358.755 259.283 355.764C259.232 354.27 259.21 353.06 259.217 352.221C259.223 351.384 259.247 350.921 259.292 350.92C259.387 350.916 259.521 352.76 259.74 355.738C259.96 358.716 260.281 362.825 260.752 367.354C261.226 371.879 261.758 375.964 262.158 378.921C262.556 381.879 262.803 383.71 262.711 383.728Z" fill="#455A64"/>
<path d="M271.001 381.615C270.821 381.632 270.085 374.781 269.355 366.314C268.623 357.845 268.175 350.969 268.354 350.952C268.532 350.935 269.269 357.783 270 366.252C270.732 374.718 271.179 381.596 271.001 381.615Z" fill="#455A64"/>
<path d="M313.115 334.405C313.147 334.438 312.861 334.812 312.312 335.456C311.761 336.097 310.95 337.016 309.884 338.088C308.817 339.156 307.485 340.381 305.826 341.495C304.172 342.598 302.166 343.58 299.902 343.972C297.636 344.388 295.392 343.992 293.567 343.225C291.723 342.465 290.245 341.412 289.07 340.476C287.896 339.531 287.019 338.679 286.427 338.079C285.834 337.477 285.533 337.119 285.561 337.085C285.635 336.992 286.974 338.299 289.339 340.082C290.529 340.954 291.999 341.938 293.777 342.633C295.547 343.336 297.646 343.687 299.798 343.293C301.95 342.923 303.889 341.999 305.512 340.956C307.14 339.904 308.48 338.739 309.577 337.729C311.751 335.68 313.042 334.325 313.115 334.405Z" fill="#455A64"/>
<path d="M319.766 360.011C319.785 360.053 319.375 360.308 318.616 360.727C317.733 361.216 316.664 361.806 315.41 362.501C312.708 364.003 309.013 366.154 305.055 368.747C301.098 371.343 297.629 373.884 295.153 375.775C294.008 376.654 293.031 377.403 292.225 378.024C291.531 378.553 291.135 378.829 291.106 378.793C291.079 378.755 291.421 378.409 292.068 377.813C292.712 377.215 293.67 376.383 294.879 375.385C297.292 373.389 300.736 370.77 304.714 368.162C308.692 365.558 312.44 363.462 315.205 362.066C316.585 361.365 317.717 360.828 318.509 360.485C319.302 360.139 319.748 359.968 319.766 360.011Z" fill="#455A64"/>
<path d="M240.538 349.236C240.456 349.265 240.151 348.598 239.76 347.474C239.375 346.349 238.89 344.758 238.661 342.918C238.426 341.077 238.593 339.364 238.914 338.195C239.229 337.021 239.604 336.375 239.671 336.407C239.863 336.469 238.787 339.262 239.304 342.831C239.524 344.599 239.928 346.179 240.198 347.331C240.475 348.481 240.626 349.207 240.538 349.236Z" fill="#455A64"/>
<path d="M245.774 349.557C245.686 349.575 245.468 348.852 245.169 347.669C244.885 346.485 244.475 344.834 244.354 342.928C244.298 341.976 244.344 341.056 244.482 340.232C244.644 339.411 244.876 338.693 245.156 338.135C245.713 337.014 246.274 336.494 246.323 336.541C246.414 336.611 245.992 337.232 245.575 338.334C245.146 339.434 244.871 341.06 245.002 342.884C245.115 344.707 245.448 346.36 245.619 347.569C245.802 348.777 245.862 349.538 245.774 349.557Z" fill="#455A64"/>
<path d="M277.854 346.373C277.636 346.397 278.058 341.81 275.965 336.796C273.944 331.747 270.499 328.938 270.663 328.784C270.706 328.724 271.615 329.324 272.831 330.619C274.046 331.907 275.505 333.956 276.561 336.523C277.606 339.094 278.018 341.623 278.073 343.442C278.134 345.268 277.924 346.382 277.854 346.373Z" fill="#455A64"/>
<path d="M283.621 344.224C283.415 344.252 283.133 340.128 281.335 335.486C279.579 330.822 277.076 327.65 277.243 327.519C277.304 327.465 278.007 328.185 278.948 329.527C279.888 330.866 281.029 332.857 281.937 335.228C282.839 337.599 283.326 339.871 283.528 341.526C283.732 343.184 283.7 344.219 283.621 344.224Z" fill="#455A64"/>
<path d="M261.566 339.676C261.545 339.655 261.79 339.318 262.431 339.002C263.057 338.687 264.135 338.466 265.362 338.884C265.968 339.098 266.597 339.491 267.107 340.105C267.604 340.731 267.933 341.583 267.964 342.498C268.004 343.409 267.777 344.375 267.275 345.219C266.775 346.058 265.934 346.758 264.938 346.988C262.936 347.418 260.947 346.248 260.234 344.547C259.855 343.676 259.906 342.777 260.02 342.009C260.154 341.234 260.396 340.512 260.851 339.973C261.767 338.984 262.806 338.67 263.505 338.629C264.227 338.598 264.571 338.891 264.548 338.913C264.526 338.973 264.175 338.785 263.53 338.896C262.907 339.002 261.948 339.391 261.196 340.293C260.854 340.732 260.649 341.392 260.552 342.097C260.467 342.802 260.457 343.604 260.776 344.28C261.38 345.686 263.137 346.687 264.797 346.317C266.475 345.933 267.432 344.066 267.366 342.521C267.355 341.734 267.094 341.015 266.692 340.469C266.275 339.933 265.74 339.56 265.208 339.342C264.126 338.91 263.131 339.032 262.522 339.251C261.9 339.471 261.601 339.726 261.566 339.676Z" fill="#455A64"/>
<path d="M183.934 211.536C183.251 212.418 163.268 225.906 160.257 234.597C157.246 243.287 162.093 278.707 162.921 284.833C163.75 290.959 175.096 314.08 175.096 314.08C175.096 314.08 172.715 324.056 175.841 330.211C178.967 336.366 184.567 339.104 184.567 339.104L204.652 327.452L192.174 267.711L183.934 211.536Z" fill="#004E98"/>
<path d="M186.112 274.282C186.687 273.428 187.462 272.872 187.928 272.221C188.394 271.572 189.426 271.282 189.917 271.911C190.473 272.627 189.863 273.671 189.274 274.356C191.304 274.446 192.835 271.511 194.79 272.093C196.07 272.475 196.542 274.29 196.03 275.589C195.518 276.888 194.35 277.747 193.2 278.45C192.05 279.154 190.818 279.811 190.007 280.927C189.582 281.51 189.31 282.392 189.769 282.946C190.545 283.889 192.37 282.776 193.064 283.79C193.532 284.475 192.967 285.399 192.428 286.025C190.469 288.294 188.509 290.564 186.55 292.835C186.032 293.435 185.477 294.059 184.745 294.305C184.012 294.551 183.056 294.248 182.826 293.472C182.6 292.709 183.16 291.922 183.802 291.501C184.445 291.082 185.203 290.86 185.776 290.34C186.351 289.82 186.657 288.811 186.135 288.234C185.485 287.516 184.362 288.117 183.623 288.732C181.337 290.634 179.051 292.538 176.764 294.44C176.261 294.859 175.724 295.294 175.088 295.378C174.454 295.461 173.713 295.039 173.667 294.363C173.643 294.011 173.805 293.678 173.971 293.373C175.219 291.068 176.956 289.063 179.017 287.549C179.797 286.976 180.642 286.454 181.214 285.65C181.786 284.846 182.007 283.651 181.435 282.847C180.089 284.189 178.597 285.366 177 286.351C176.429 286.702 175.612 286.99 175.188 286.452C174.752 285.901 175.204 285.083 175.645 284.534C178.011 281.596 180.378 278.658 182.744 275.719C183.348 274.97 184.056 274.163 184.984 274.105L186.112 274.282Z" fill="white"/>
<path d="M195.991 192.21L194.417 202.641L179.628 215.19C179.628 215.19 176.134 238.76 179.464 262.741C179.464 262.741 201.073 324.783 201.6 327.483C202.582 332.514 211.312 336.749 211.312 336.749C211.312 336.749 244.237 337.069 255.549 335.34C266.863 333.611 294.222 315.337 296.798 312.905C299.376 310.473 302.364 298.813 302.364 298.813L282.234 239.066L281.104 197.041L251.012 188.858L240.792 180.478L195.991 192.21Z" fill="#004E98"/>
<path d="M284.732 235.792C285.306 234.936 286.081 234.382 286.549 233.731C287.015 233.081 288.046 232.791 288.536 233.421C289.093 234.137 288.484 235.181 287.894 235.864C289.924 235.955 291.455 233.02 293.41 233.603C294.689 233.983 295.162 235.798 294.65 237.097C294.138 238.396 292.97 239.257 291.82 239.96C290.67 240.664 289.438 241.321 288.627 242.435C288.202 243.019 287.93 243.902 288.388 244.456C289.165 245.399 290.99 244.286 291.683 245.3C292.152 245.985 291.587 246.909 291.048 247.533C289.089 249.804 287.129 252.073 285.17 254.343C284.652 254.944 284.098 255.569 283.365 255.814C282.632 256.059 281.677 255.757 281.446 254.981C281.221 254.218 281.78 253.431 282.422 253.011C283.065 252.591 283.824 252.368 284.397 251.85C284.971 251.33 285.278 250.321 284.756 249.743C284.105 249.025 282.981 249.625 282.244 250.241C279.957 252.144 277.671 254.047 275.384 255.95C274.881 256.368 274.344 256.802 273.708 256.887C273.074 256.971 272.332 256.549 272.287 255.872C272.263 255.521 272.425 255.188 272.591 254.882C273.838 252.578 275.576 250.573 277.637 249.059C278.417 248.485 279.262 247.964 279.834 247.16C280.406 246.356 280.628 245.161 280.056 244.357C278.709 245.697 277.217 246.875 275.619 247.859C275.048 248.21 274.232 248.498 273.808 247.962C273.372 247.409 273.823 246.592 274.265 246.044C276.632 243.106 278.998 240.166 281.364 237.228C281.967 236.48 282.676 235.672 283.604 235.614L284.732 235.792Z" fill="white"/>
<path d="M280.614 197.093C280.614 197.093 297.275 203.219 301.626 213.815C305.977 224.412 322.687 274.565 321.648 283.718C320.608 292.869 317.813 303.544 310.27 304.002C302.725 304.46 294.061 296.329 294.061 296.329L287.277 284.651L287.637 272.413L279.943 239.833L280.614 197.093Z" fill="#004E98"/>
<path d="M196.637 197.318C196.643 197.39 231.045 241.977 231.045 241.977L235.722 200.672L242.231 180.325L197.43 192.059L196.637 197.318Z" fill="#E2A68B"/>
<mask id="mask4_2002_3" style="mask-type:luminance" maskUnits="userSpaceOnUse" x="233" y="193" width="39" height="45">
<path d="M233.287 193.6H271.69V237.262H233.287V193.6Z" fill="white"/>
</mask>
<g mask="url(#mask4_2002_3)">
<g opacity="0.300003">
<path d="M267.659 194.101C265.628 193.022 263.181 193.876 261.126 194.903C249.491 200.721 236.845 207.775 233.429 220.917L233.287 228.861C234.357 233.641 239.026 236.797 243.647 237.203C248.269 237.61 252.81 235.801 256.952 233.592C260.665 231.61 264.214 229.281 267.54 226.639C269.388 225.173 271.296 223.383 271.635 220.965C272.098 217.666 269.489 214.794 268.895 211.519C268.339 208.464 269.578 205.41 270.151 202.359C270.724 199.309 270.282 195.498 267.659 194.101Z" fill="black"/>
</g>
</g>
<path d="M179.464 262.742C179.485 262.734 179.6 262.998 179.799 263.51C180.017 264.091 180.297 264.836 180.642 265.758C181.361 267.715 182.375 270.559 183.592 274.088C186.056 281.133 189.191 290.968 192.72 301.794C194.495 307.207 196.228 312.346 197.822 317.015C198.627 319.346 199.354 321.578 200.137 323.611C200.927 325.638 201.796 327.466 202.763 329.017C204.693 332.139 206.978 334.052 208.633 335.162C210.313 336.255 211.343 336.672 211.312 336.749C211.303 336.771 211.045 336.67 210.562 336.457C210.069 336.266 209.379 335.896 208.502 335.39C206.788 334.34 204.403 332.442 202.382 329.289C201.37 327.723 200.461 325.873 199.64 323.83C198.827 321.781 198.081 319.558 197.26 317.233C195.635 312.573 193.884 307.435 192.107 302.02C188.625 291.213 185.474 281.431 183.16 274.251C182.016 270.765 181.082 267.915 180.405 265.849C180.106 264.91 179.865 264.15 179.676 263.557C179.517 263.031 179.443 262.75 179.464 262.742Z" fill="#263238"/>
<path d="M230.883 243.392C230.87 243.403 230.757 243.268 230.554 242.999C230.323 242.681 230.032 242.286 229.675 241.798C228.907 240.748 227.783 239.213 226.314 237.314C223.377 233.513 219.023 228.26 213.313 222.656L213.809 222.436C213.676 228.483 213.528 235.269 213.369 242.423C213.356 243.054 213.34 243.681 213.327 244.263L213.293 245.673L212.712 244.406C207.427 232.907 202.68 222.574 199.215 215.033C197.547 211.331 196.19 208.318 195.217 206.158C194.778 205.153 194.428 204.348 194.16 203.735C193.926 203.178 193.812 202.881 193.832 202.871C193.851 202.86 194.003 203.137 194.276 203.676C194.57 204.275 194.956 205.061 195.438 206.041C196.456 208.18 197.875 211.16 199.619 214.823C203.13 222.339 207.939 232.641 213.293 244.104L212.678 244.246C212.692 243.664 212.707 243.037 212.722 242.406C212.9 235.252 213.069 228.467 213.22 222.42L213.237 221.723L213.716 222.2C219.415 227.868 223.725 233.2 226.59 237.077C228.024 239.018 229.105 240.591 229.825 241.68C230.154 242.191 230.42 242.607 230.633 242.939C230.811 243.227 230.897 243.383 230.883 243.392Z" fill="#263238"/>
<path d="M279.882 275.644C280.011 275.776 269.966 287.165 257.449 301.08C244.926 315 234.673 326.175 234.544 326.043C234.414 325.913 244.457 314.526 256.979 300.605C269.498 286.69 279.752 275.513 279.882 275.644Z" fill="#263238"/>
<path d="M261.195 333.052C261.098 333.069 260.794 331.473 260.233 328.915C259.673 326.358 258.82 322.845 257.655 319.038C256.485 315.233 255.227 311.86 254.261 309.442C253.297 307.024 252.658 305.543 252.745 305.497C252.817 305.457 253.602 306.863 254.68 309.243C255.758 311.621 257.095 314.991 258.272 318.827C259.446 322.66 260.235 326.221 260.682 328.816C261.131 331.412 261.275 333.038 261.195 333.052Z" fill="#263238"/>
<path d="M176.849 260.55C176.748 260.707 173.001 258.205 168.479 254.961C163.956 251.718 160.372 248.961 160.473 248.804C160.572 248.646 164.32 251.148 168.843 254.392C173.365 257.636 176.95 260.393 176.849 260.55Z" fill="#263238"/>
<path d="M310.269 304.002C310.269 304.019 310.121 304.034 309.831 304.044C309.484 304.049 309.062 304.057 308.551 304.065C307.987 304.105 307.304 303.999 306.499 303.886C305.684 303.826 304.793 303.529 303.784 303.252C301.809 302.57 299.51 301.339 297.361 299.303C295.23 297.259 293.228 294.507 291.847 291.069L291.842 291.057L291.837 291.033C290.67 286.022 289.371 280.452 288.003 274.586C285.459 263.421 283.156 253.318 281.467 245.905C280.675 242.289 280.028 239.334 279.558 237.194C279.358 236.219 279.198 235.431 279.071 234.817C278.966 234.272 278.922 233.984 278.944 233.977C278.966 233.972 279.053 234.25 279.198 234.784C279.355 235.39 279.555 236.167 279.803 237.129C280.322 239.259 281.037 242.196 281.913 245.789C283.65 253.19 286.017 263.276 288.634 274.422C289.982 280.293 291.261 285.869 292.413 290.884L292.403 290.851C293.702 294.153 295.649 296.907 297.693 298.916C299.763 300.932 301.978 302.172 303.897 302.893C307.808 304.197 310.288 303.822 310.269 304.002Z" fill="#263238"/>
<path d="M188.559 304.811C188.564 304.928 187.595 304.995 186.096 305.388C184.601 305.775 182.588 306.58 180.646 307.977C178.71 309.383 177.268 311.075 176.382 312.408C175.49 313.743 175.076 314.674 174.977 314.627C174.912 314.602 175.177 313.588 175.998 312.141C176.812 310.696 178.262 308.873 180.281 307.409C182.303 305.953 184.435 305.188 186.001 304.913C187.572 304.632 188.561 304.739 188.559 304.811Z" fill="#263238"/>
<path d="M188.78 303.306C188.85 303.468 186.31 304.782 182.941 305.662C179.576 306.556 176.752 306.657 176.741 306.479C176.723 306.279 179.475 305.876 182.784 304.994C186.097 304.13 188.708 303.12 188.78 303.306Z" fill="#263238"/>
<path d="M184.887 229.981C185.461 229.125 186.236 228.571 186.704 227.92C187.17 227.271 188.201 226.98 188.691 227.61C189.248 228.325 188.639 229.369 188.049 230.055C190.079 230.144 191.61 227.21 193.565 227.792C194.845 228.172 195.317 229.989 194.805 231.287C194.293 232.586 193.126 233.446 191.975 234.149C190.825 234.853 189.593 235.51 188.781 236.624C188.357 237.208 188.085 238.091 188.543 238.645C189.32 239.588 191.146 238.475 191.838 239.489C192.307 240.174 191.742 241.098 191.203 241.722C189.244 243.992 187.284 246.263 185.326 248.533C184.806 249.134 184.253 249.758 183.52 250.004C182.787 250.248 181.832 249.947 181.601 249.171C181.376 248.406 181.935 247.62 182.577 247.2C183.22 246.78 183.979 246.557 184.552 246.038C185.126 245.518 185.433 244.51 184.911 243.933C184.26 243.215 183.138 243.816 182.397 244.429C180.112 246.333 177.826 248.236 175.54 250.138C175.036 250.557 174.499 250.991 173.864 251.076C173.228 251.16 172.487 250.738 172.442 250.06C172.418 249.709 172.58 249.377 172.746 249.07C173.993 246.767 175.731 244.762 177.792 243.248C178.572 242.675 179.417 242.152 179.989 241.348C180.561 240.545 180.783 239.35 180.211 238.546C178.864 239.887 177.371 241.065 175.774 242.048C175.204 242.399 174.386 242.687 173.963 242.151C173.527 241.598 173.978 240.781 174.421 240.233C176.787 237.295 179.153 234.355 181.519 231.417C182.122 230.668 182.831 229.86 183.759 229.804L184.887 229.981Z" fill="white"/>
<path d="M237.235 247.904C237.81 247.048 238.585 246.494 239.051 245.843C239.519 245.194 240.549 244.903 241.04 245.533C241.596 246.249 240.986 247.293 240.397 247.978C242.427 248.068 243.958 245.133 245.913 245.715C247.193 246.097 247.665 247.912 247.153 249.211C246.641 250.51 245.473 251.369 244.323 252.072C243.173 252.776 241.941 253.433 241.13 254.547C240.705 255.132 240.433 256.014 240.892 256.568C241.668 257.511 243.493 256.398 244.187 257.412C244.655 258.097 244.09 259.021 243.552 259.647L237.673 266.456C237.155 267.057 236.6 267.681 235.868 267.927C235.135 268.171 234.18 267.87 233.949 267.094C233.723 266.331 234.283 265.543 234.925 265.123C235.568 264.703 236.326 264.48 236.9 263.962C237.474 263.442 237.78 262.433 237.258 261.856C236.608 261.138 235.485 261.739 234.746 262.353C232.46 264.256 230.174 266.159 227.887 268.062C227.384 268.481 226.847 268.916 226.211 268.999C225.577 269.083 224.836 268.661 224.79 267.984C224.766 267.633 224.928 267.3 225.094 266.994C226.341 264.69 228.079 262.685 230.14 261.171C230.92 260.598 231.765 260.076 232.337 259.272C232.909 258.468 233.13 257.273 232.558 256.469C231.212 257.81 229.72 258.988 228.123 259.971C227.552 260.324 226.735 260.611 226.311 260.074C225.875 259.521 226.327 258.704 226.768 258.156C229.134 255.218 231.501 252.278 233.867 249.34C234.471 248.592 235.179 247.784 236.107 247.727L237.235 247.904Z" fill="white"/>
<path d="M217.296 300.456C217.871 299.601 218.646 299.047 219.113 298.396C219.579 297.746 220.611 297.456 221.101 298.086C221.658 298.801 221.048 299.845 220.459 300.53C222.489 300.62 224.019 297.686 225.975 298.268C227.253 298.649 227.727 300.464 227.215 301.763C226.703 303.062 225.535 303.921 224.385 304.625C223.235 305.329 222.003 305.986 221.19 307.1C220.767 307.683 220.494 308.566 220.952 309.121C221.73 310.063 223.555 308.951 224.248 309.964C224.716 310.649 224.152 311.573 223.612 312.199C221.654 314.468 219.694 316.739 217.735 319.009C217.216 319.61 216.662 320.234 215.93 320.479C215.196 320.724 214.241 320.423 214.011 319.647C213.785 318.882 214.345 318.096 214.986 317.676C215.629 317.256 216.387 317.033 216.961 316.514C217.534 315.994 217.842 314.986 217.32 314.409C216.67 313.691 215.546 314.291 214.807 314.905C212.521 316.809 210.235 318.712 207.949 320.614C207.446 321.034 206.909 321.467 206.273 321.551C205.638 321.636 204.896 321.213 204.851 320.536C204.828 320.185 204.99 319.852 205.154 319.546C206.403 317.243 208.14 315.238 210.202 313.724C210.982 313.151 211.827 312.628 212.398 311.824C212.97 311.02 213.192 309.826 212.62 309.022C211.273 310.363 209.781 311.54 208.183 312.524C207.613 312.875 206.795 313.163 206.373 312.627C205.937 312.074 206.388 311.257 206.829 310.709C209.196 307.771 211.562 304.831 213.929 301.893C214.532 301.144 215.241 300.336 216.169 300.28L217.296 300.456Z" fill="white"/>
<path d="M276.814 295.834C277.388 294.979 278.163 294.425 278.63 293.774C279.096 293.124 280.128 292.834 280.618 293.464C281.175 294.179 280.565 295.223 279.976 295.908C282.006 295.998 283.537 293.064 285.492 293.646C286.772 294.026 287.244 295.842 286.732 297.141C286.22 298.44 285.052 299.299 283.902 300.003C282.752 300.707 281.52 301.364 280.709 302.478C280.284 303.061 280.012 303.944 280.471 304.499C281.247 305.441 283.072 304.329 283.765 305.342C284.234 306.027 283.669 306.951 283.13 307.577C281.171 309.846 279.211 312.115 277.252 314.387C276.734 314.988 276.18 315.612 275.447 315.857C274.714 316.102 273.759 315.801 273.528 315.025C273.302 314.26 273.862 313.474 274.504 313.054C275.147 312.634 275.905 312.411 276.479 311.892C277.053 311.372 277.359 310.364 276.837 309.787C276.187 309.069 275.064 309.669 274.325 310.283C272.039 312.187 269.753 314.09 267.466 315.992C266.963 316.411 266.426 316.845 265.79 316.929C265.156 317.014 264.414 316.591 264.369 315.914C264.345 315.563 264.507 315.23 264.673 314.924C265.92 312.621 267.658 310.616 269.719 309.102C270.499 308.529 271.344 308.006 271.916 307.202C272.488 306.398 272.709 305.204 272.137 304.4C270.791 305.741 269.299 306.918 267.7 307.902C267.131 308.253 266.314 308.541 265.89 308.005C265.454 307.452 265.905 306.635 266.347 306.087C268.713 303.149 271.08 300.209 273.446 297.271C274.049 296.522 274.758 295.714 275.686 295.658L276.814 295.834Z" fill="white"/>
<path d="M254.087 302.904C254.067 302.914 253.95 302.728 253.745 302.361C253.508 301.922 253.22 301.387 252.874 300.742C252.125 299.33 251.087 297.265 249.844 294.688C247.353 289.537 244.106 282.313 240.902 274.159C237.705 265.999 235.163 258.463 233.474 252.96C232.626 250.209 231.976 247.971 231.56 246.414C231.374 245.699 231.218 245.106 231.091 244.618C230.992 244.206 230.949 243.985 230.97 243.979C230.992 243.971 231.076 244.178 231.217 244.577C231.375 245.053 231.568 245.633 231.801 246.334C232.331 247.963 233.042 250.149 233.907 252.804C235.706 258.26 238.311 265.751 241.502 273.894C244.698 282.032 247.872 289.273 250.255 294.472C251.421 296.994 252.382 299.07 253.098 300.619C253.401 301.287 253.653 301.841 253.859 302.296C254.029 302.683 254.107 302.892 254.087 302.904Z" fill="#263238"/>
<path d="M321.691 282.668C321.71 283.653 317.388 285.722 316.463 285.627L315.374 285.267C314.68 286.018 313.834 286.439 313.278 287.005C312.723 287.572 311.662 287.689 311.269 286.986C310.823 286.188 311.578 285.256 312.26 284.677C310.268 284.256 308.327 286.904 306.48 286.009C305.272 285.423 305.07 283.551 305.765 282.352C306.46 281.154 307.74 280.495 308.978 279.988C310.218 279.481 311.53 279.034 312.495 278.065C313.001 277.558 313.397 276.731 313.025 276.107C312.395 275.05 310.429 275.85 309.893 274.736C309.53 273.982 310.222 273.16 310.846 272.632C313.113 270.71 316.21 268.026 318.478 266.105C318.478 266.105 321.61 278.148 321.691 282.668Z" fill="white"/>
<mask id="mask5_2002_3" style="mask-type:luminance" maskUnits="userSpaceOnUse" x="234" y="278" width="44" height="48">
<path d="M234.865 278.305H277.807V325.295H234.865V278.305Z" fill="white"/>
</mask>
<g mask="url(#mask5_2002_3)">
<g opacity="0.300003">
<path d="M234.865 325.296C252.941 314.853 269.059 298.048 277.807 278.304L234.865 325.296Z" fill="black"/>
</g>
</g>
<mask id="mask6_2002_3" style="mask-type:luminance" maskUnits="userSpaceOnUse" x="174" y="302" width="19" height="13">
<path d="M174.976 302.362H192.293V314.627H174.976V302.362Z" fill="white"/>
</mask>
<g mask="url(#mask6_2002_3)">
<g opacity="0.300003">
<path d="M174.976 314.627C178.516 306.572 185.474 304.363 192.245 304.46C192.475 303.647 191.843 302.787 191.083 302.512C190.324 302.237 189.493 302.391 188.707 302.556C185.455 303.233 182.154 304.064 179.358 305.949C176.564 307.836 175.174 310.881 175.083 314.391" fill="black"/>
</g>
</g>
<mask id="mask7_2002_3" style="mask-type:luminance" maskUnits="userSpaceOnUse" x="194" y="203" width="36" height="51">
<path d="M194.037 203.096H229.739V253.474H194.037V203.096Z" fill="white"/>
</mask>
<g mask="url(#mask7_2002_3)">
<g opacity="0.300003">
<path d="M194.037 203.097C198.577 220.989 205.848 237.848 215.244 253.476C218.717 247.822 220.228 240.849 219.432 234.158C222.02 237.749 225.672 240.47 229.739 241.835C224.937 234.86 219.957 228.21 213.72 222.652C213.72 222.652 213.186 245.066 213.208 244.481C206.681 230.609 200.348 216.941 194.037 203.097Z" fill="black"/>
</g>
</g>
<path d="M248.939 140.791C247.079 147.188 244.436 152.123 238.581 154.641C233.462 156.841 227.67 156.424 222.258 155.242C204.68 151.408 186.227 141.481 176.894 125.244L181.928 113.728C187.2 104.954 200.087 94.5449 215.038 99.6956C215.038 99.6956 227.055 95.102 238.468 105.431C249.88 115.761 248.939 140.791 248.939 140.791Z" fill="#263238"/>
<path d="M206.698 108.47C196.428 107.105 183.178 120.364 182.327 131.291C181.382 143.433 180.679 158.295 181.873 167.392C184.271 185.685 197.424 188.277 197.424 188.277L196.789 197.582L236.121 189.579L237.809 124.328L238.027 118.444L206.698 108.47Z" fill="#E2A68B"/>
<path d="M188.716 144.462C188.652 145.696 189.587 146.77 190.801 146.865C192.015 146.959 193.052 146.038 193.115 144.804C193.18 143.569 192.246 142.492 191.033 142.399C189.817 142.303 188.779 143.227 188.716 144.462Z" fill="#263238"/>
<path d="M185.826 139.114C186.093 139.424 187.791 138.148 190.165 138.203C192.539 138.223 194.26 139.554 194.523 139.25C194.651 139.117 194.383 138.561 193.636 137.959C192.898 137.36 191.634 136.767 190.154 136.743C188.674 136.722 187.418 137.273 186.692 137.85C185.951 138.428 185.694 138.974 185.826 139.114Z" fill="#263238"/>
<path d="M210.898 145.368C210.834 146.602 211.767 147.677 212.984 147.77C214.196 147.865 215.234 146.944 215.297 145.71C215.362 144.476 214.428 143.399 213.214 143.305C211.999 143.21 210.961 144.134 210.898 145.368Z" fill="#263238"/>
<path d="M209.169 140.063C209.439 140.374 211.137 139.099 213.51 139.153C215.884 139.172 217.604 140.503 217.868 140.199C217.996 140.066 217.731 139.51 216.979 138.908C216.242 138.309 214.978 137.717 213.499 137.693C212.019 137.672 210.763 138.222 210.037 138.799C209.298 139.377 209.039 139.925 209.169 140.063Z" fill="#263238"/>
<path d="M200.206 158.551C200.219 158.409 198.748 158.109 196.361 157.734C195.755 157.655 195.183 157.516 195.088 157.075C194.955 156.608 195.222 155.92 195.529 155.179C196.128 153.634 196.754 152.017 197.412 150.322C200.031 143.406 201.94 137.714 201.676 137.604C201.412 137.495 199.076 143.012 196.456 149.929C195.825 151.634 195.222 153.261 194.649 154.816C194.404 155.542 193.994 156.361 194.286 157.333C194.442 157.816 194.88 158.174 195.268 158.293C195.654 158.426 195.994 158.44 196.295 158.465C198.701 158.652 200.193 158.694 200.206 158.551Z" fill="#263238"/>
<path d="M197.43 188.325C197.43 188.325 209.585 189.33 221.193 182.259C221.193 182.259 214.9 194.854 197.114 192.817L197.43 188.325Z" fill="#77574A"/>
<path d="M201.099 164.637C201.976 163.457 203.484 162.832 204.968 163.032C205.997 163.171 207.029 163.719 207.639 164.622C208.248 165.523 208.357 166.789 207.771 167.625C207.113 168.567 205.769 168.76 204.642 168.396C203.514 168.03 202.553 167.219 201.641 166.413C201.388 166.19 201.13 165.957 200.975 165.655C200.821 165.353 200.794 164.961 200.997 164.718" fill="#77574A"/>
<path d="M207.165 160.436C206.779 160.404 206.724 163.135 204.481 165.029C202.242 166.93 199.5 166.567 199.473 166.949C199.433 167.118 200.074 167.491 201.234 167.548C202.372 167.613 204.04 167.26 205.412 166.101C206.782 164.94 207.39 163.365 207.498 162.247C207.618 161.106 207.342 160.424 207.165 160.436Z" fill="#263238"/>
<path d="M208.737 130.188C208.959 130.877 211.336 130.601 214.117 131.014C216.906 131.369 219.137 132.279 219.518 131.673C219.689 131.383 219.309 130.732 218.412 130.051C217.524 129.37 216.098 128.711 214.429 128.48C212.759 128.252 211.221 128.501 210.198 128.918C209.167 129.334 208.642 129.861 208.737 130.188Z" fill="#263238"/>
<path d="M186.833 131.848C187.24 132.428 188.887 131.868 190.856 131.881C192.825 131.821 194.483 132.341 194.878 131.749C195.051 131.463 194.8 130.885 194.081 130.329C193.374 129.775 192.182 129.31 190.829 129.324C189.475 129.343 188.293 129.837 187.599 130.408C186.892 130.981 186.653 131.566 186.833 131.848Z" fill="#263238"/>
<path d="M236.429 116.623C235.048 113.55 231.641 112.283 228.622 111.119C224.365 109.477 220.229 107.462 215.879 106.117C211.53 104.771 206.868 104.113 202.466 105.25C197.92 106.425 193.981 109.417 190.5 112.732C185.913 117.1 181.75 122.456 180.611 128.878L180.63 131.081C190.516 128.103 200.341 117.168 207.501 109.357C213.635 118.466 223.901 134.675 232.95 138.647C233.566 133.994 236.756 127.235 237.044 122.546C237.167 120.541 237.243 118.438 236.429 116.623Z" fill="#263238"/>
<path d="M269.658 190.278C268.988 186.636 265.59 184.434 262.613 182.48C259.635 180.525 256.439 177.719 256.61 174.012C256.788 170.136 260.689 167.115 260.368 163.248C260.03 159.188 255.505 157.313 253.096 154.135C249.615 149.542 248.942 146.679 248.94 140.791C248.933 129.262 244.584 114.214 235.012 108.728L222.488 119.856C226.122 130.62 229.812 141.867 228.538 153.219C227.781 159.956 225.284 166.51 225.646 173.283C226.032 180.546 229.659 187.173 230.898 194.331C232.07 201.115 231.056 208.096 231.388 214.984C231.721 221.873 233.854 229.328 239.377 232.982C246.311 229.464 253.246 225.947 260.181 222.429C262.43 221.288 264.971 219.743 265.296 217.122C265.627 214.432 263.417 212.168 262.834 209.527C261.314 202.633 270.937 197.227 269.658 190.278Z" fill="#263238"/>
<path d="M248.595 133.963C248.617 134.05 247.445 134.483 245.509 135.048C243.573 135.594 240.857 136.309 237.767 136.513C234.673 136.719 231.869 136.218 229.935 135.621C227.995 135.018 226.875 134.429 226.901 134.36C226.954 134.084 231.644 136.257 237.73 135.827C240.746 135.627 243.446 135 245.401 134.575C247.355 134.133 248.571 133.867 248.595 133.963Z" fill="#455A64"/>
<path d="M248.992 138.2C249.025 138.263 248.011 138.996 246.191 139.825C244.376 140.647 241.69 141.471 238.644 141.541C235.6 141.607 232.893 140.993 230.999 140.436C229.102 139.862 227.979 139.358 228.003 139.28C228.033 139.178 229.205 139.517 231.109 139.965C233.013 140.397 235.674 140.918 238.629 140.853C241.584 140.785 244.198 140.065 246.025 139.372C247.853 138.673 248.94 138.096 248.992 138.2Z" fill="#455A64"/>
<path d="M175.932 131.374C175.963 131.176 177.448 131.326 179.243 131.089C181.041 130.87 182.449 130.351 182.523 130.534C182.602 130.693 181.23 131.535 179.32 131.771C177.412 132.021 175.891 131.547 175.932 131.374Z" fill="#455A64"/>
<path d="M175.307 133.469C175.423 133.308 176.746 134.266 178.58 134.926C180.408 135.606 182.007 135.715 182.006 135.917C182.023 136.094 180.321 136.297 178.369 135.575C176.411 134.869 175.191 133.597 175.307 133.469Z" fill="#455A64"/>
<path d="M233.569 224.126C233.569 224.126 233.237 224.095 232.66 223.844C232.085 223.598 231.255 223.109 230.439 222.179C229.622 221.269 228.839 219.872 228.571 218.076C228.445 217.181 228.481 216.183 228.761 215.19C229.033 214.197 229.53 213.242 230.076 212.289C230.619 211.334 231.23 210.369 231.68 209.287C232.114 208.203 232.376 206.993 232.389 205.72C232.404 203.169 231.53 200.487 230.162 197.986C228.805 195.469 226.876 193.145 225.081 190.559C223.288 187.998 221.576 185.017 221.051 181.567C220.471 178.148 220.886 174.739 221.602 171.618C222.341 168.482 223.454 165.6 224.524 162.89C225.599 160.182 226.643 157.624 227.433 155.163C228.231 152.707 228.766 150.352 229.018 148.16C229.568 143.781 229.151 140.157 228.435 137.821C227.739 135.455 226.819 134.409 226.9 134.36C226.919 134.345 227.119 134.615 227.487 135.147C227.816 135.702 228.294 136.546 228.674 137.735C229.479 140.089 229.973 143.77 229.473 148.22C229.247 150.445 228.728 152.854 227.943 155.345C227.165 157.841 226.135 160.423 225.076 163.135C224.023 165.847 222.935 168.702 222.219 171.779C221.523 174.846 221.131 178.163 221.69 181.447C222.193 184.751 223.824 187.615 225.594 190.16C227.361 192.725 229.294 195.068 230.682 197.672C232.07 200.245 232.965 203.033 232.927 205.73C232.902 207.073 232.61 208.362 232.138 209.503C231.65 210.639 231.016 211.606 230.466 212.543C229.914 213.478 229.426 214.389 229.155 215.318C228.88 216.241 228.828 217.173 228.931 218.024C229.15 219.731 229.867 221.096 230.627 222.001C232.188 223.852 233.633 224.023 233.569 224.126Z" fill="#263238"/>
<path d="M215.643 99.5031C215.721 99.7011 212.932 100.452 210.662 103.113C208.342 105.728 207.865 108.734 207.671 108.668C207.598 108.659 207.6 107.898 207.934 106.733C208.262 105.57 208.99 104.027 210.185 102.647C211.385 101.275 212.776 100.38 213.843 99.9387C214.913 99.4913 215.627 99.4266 215.643 99.5031Z" fill="#455A64"/>
<path d="M281.672 223.578L273.18 209.42L272.599 195.494L275.925 185.966C275.925 185.966 278.58 185.295 279.019 188.652C279.456 192.008 278.036 196.067 278.036 196.067L279.852 202.829C279.852 202.829 280.452 203.551 281.015 200.743C281.579 197.936 280.598 177.089 280.586 175.65C280.576 174.211 280.683 170.808 282.688 171.121C284.694 171.434 285.329 174.246 285.34 175.684C285.351 177.123 286.805 191.105 286.805 191.105C286.805 191.105 287.272 192.364 287.75 192.183C288.227 192.002 287.332 177.176 287.236 174.83C287.14 172.485 286.656 167.301 289.248 167.291C291.841 167.28 291.839 169.898 291.983 172.761C292.129 175.625 293.825 191.676 293.825 191.676C293.825 191.676 294.22 192.681 294.588 191.333C294.956 189.987 295.421 172.531 295.715 171.714C296.009 170.898 297.516 169.824 298.688 171.796C299.861 173.766 299.587 178.371 299.423 186.514C299.275 193.845 299.061 196.884 299.856 197.454C300.651 198.025 303.565 193.526 303.565 193.526C303.565 193.526 307.107 183.867 310.104 184.206C313.101 184.546 311.091 187.023 310.578 189.261C310.141 191.159 304.898 202.495 304.785 202.601C304.671 202.706 299.519 222.88 299.519 222.88L310.899 245.943C312.883 249.963 313.732 254.544 313.109 259.033C312.425 263.958 310.038 269.448 303.226 271.7C298.197 273.362 294.502 270.978 292.063 268.178C289.929 265.728 288.581 262.628 288.041 259.343C286.577 250.448 281.672 223.578 281.672 223.578Z" fill="#E2A68B"/>
<path d="M290.138 213.411C290.027 213.401 290.157 212.339 289.871 210.695C289.594 209.07 288.799 206.827 287.107 205.036C285.831 203.627 284.19 202.887 282.823 202.73C281.437 202.566 280.411 203.078 279.911 203.424L279.793 203.506L279.741 203.39C279.572 203.012 279.501 202.808 279.537 202.785C279.572 202.764 279.707 202.926 279.938 203.266L279.769 203.233C280.211 202.764 281.326 202.068 282.865 202.169C284.37 202.254 286.188 203.031 287.566 204.551C289.383 206.475 290.154 208.903 290.325 210.623C290.503 212.37 290.203 213.43 290.138 213.411Z" fill="#77574A"/>
<path d="M297.309 202.716C297.423 202.879 296.271 203.924 295.15 205.469C294.012 207.002 293.339 208.441 293.164 208.365C293.003 208.309 293.435 206.672 294.637 205.046C295.828 203.413 297.218 202.566 297.309 202.716Z" fill="#77574A"/>
<path d="M182.178 328.807C182.26 329.685 182.181 337.971 188.263 344.723C194.346 351.473 197.079 353.846 197.079 353.846L218.536 364.049C218.536 364.049 224.129 364.946 229.772 359.145C233.28 355.539 234.132 353.204 234.132 353.204C234.132 353.204 240.569 356.253 243.081 356.138C247.314 355.943 246.65 352.776 246.65 352.776C246.65 352.776 232.481 344.509 229.112 341.316C225.744 338.123 216.059 336.018 209.172 336.973L205.188 336.144L203.749 330.468C203.749 330.468 195.973 318.193 188.841 322.49C181.709 326.788 182.178 328.807 182.178 328.807Z" fill="#E2A68B"/>
</g>
</svg>
